<svg width="40" height="40" viewBox="0 0 40 40" fill="none" xmlns="http://www.w3.org/2000/svg">
<path d="M23 40C32.622 38.5438 40 30.1951 40 20.1126C40 9.00442 31.046 0 20 0C8.954 0 0 9.00442 0 20.1126C0 30.1951 7.378 38.5459 17 40V26.1464H14C13.2043 26.1464 12.4413 25.8286 11.8787 25.2628C11.3161 24.697 11 23.9297 11 23.1295C11 22.3294 11.3161 21.562 11.8787 20.9963C12.4413 20.4305 13.2043 20.1126 14 20.1126H17V16.0901C17 14.2231 17.7375 12.4326 19.0503 11.1125C20.363 9.79233 22.1435 9.05068 24 9.05068H25C25.7956 9.05068 26.5587 9.36853 27.1213 9.93431C27.6839 10.5001 28 11.2674 28 12.0676C28 12.8677 27.6839 13.6351 27.1213 14.2008C26.5587 14.7666 25.7956 15.0845 25 15.0845H24C23.7348 15.0845 23.4804 15.1904 23.2929 15.379C23.1054 15.5676 23 15.8234 23 16.0901V20.1126H26C26.7956 20.1126 27.5587 20.4305 28.1213 20.9963C28.6839 21.562 29 22.3294 29 23.1295C29 23.9297 28.6839 24.697 28.1213 25.2628C27.5587 25.8286 26.7956 26.1464 26 26.1464H23V40Z" fill="#B8B8B8"/>
</svg>
