<svg width="272" height="38" viewBox="0 0 272 38" fill="none" xmlns="http://www.w3.org/2000/svg">
<path d="M3.496 30V3.856H12.046C14.25 3.856 16.0487 3.97 17.442 4.198C18.8607 4.40067 19.9753 4.78067 20.786 5.338C21.5967 5.89533 22.1793 6.668 22.534 7.656C22.914 8.644 23.1547 9.898 23.256 11.418C23.3573 12.938 23.408 14.7747 23.408 16.928C23.408 19.0813 23.3573 20.918 23.256 22.438C23.1547 23.958 22.914 25.212 22.534 26.2C22.1793 27.188 21.5967 27.9607 20.786 28.518C19.9753 29.0753 18.8607 29.468 17.442 29.696C16.0487 29.8987 14.25 30 12.046 30H3.496ZM7.79 26.352H11.666C13.0847 26.352 14.25 26.3267 15.162 26.276C16.0993 26.2 16.834 26.0227 17.366 25.744C17.898 25.44 18.2907 24.9587 18.544 24.3C18.7973 23.6413 18.9493 22.7167 19 21.526C19.076 20.31 19.114 18.7773 19.114 16.928C19.114 15.0787 19.076 13.5587 19 12.368C18.9493 11.1773 18.7847 10.2527 18.506 9.594C18.2527 8.91 17.8473 8.42867 17.29 8.15C16.758 7.846 16.036 7.66867 15.124 7.618C14.212 7.542 13.0593 7.504 11.666 7.504H7.79V26.352ZM29.0528 30V1.766H33.0808V13.014H33.3468C33.6508 12.4313 34.0561 11.95 34.5628 11.57C35.0694 11.1647 35.7028 10.8607 36.4628 10.658C37.2481 10.4553 38.1981 10.354 39.3128 10.354C40.6808 10.354 41.7828 10.506 42.6188 10.81C43.4801 11.114 44.1261 11.5827 44.5568 12.216C44.9874 12.8493 45.2788 13.6347 45.4308 14.572C45.6081 15.5093 45.6968 16.6113 45.6968 17.878V30H41.6308V19.474C41.6308 18.2073 41.5801 17.2067 41.4788 16.472C41.4028 15.712 41.2254 15.1547 40.9468 14.8C40.6681 14.42 40.2501 14.1793 39.6928 14.078C39.1608 13.9767 38.4388 13.926 37.5268 13.926C36.5134 13.926 35.7028 14.0527 35.0948 14.306C34.5121 14.5593 34.0688 14.9393 33.7648 15.446C33.4861 15.9527 33.2961 16.586 33.1948 17.346C33.1188 18.106 33.0808 18.9927 33.0808 20.006V30H29.0528ZM56.6295 30.304C55.3122 30.304 54.1975 30.1267 53.2855 29.772C52.3988 29.4173 51.7275 28.8347 51.2715 28.024C50.8155 27.188 50.5875 26.0607 50.5875 24.642C50.5875 23.1473 50.7648 21.9693 51.1195 21.108C51.4742 20.2213 52.0822 19.588 52.9435 19.208C53.8048 18.828 55.0208 18.638 56.5915 18.638C56.8448 18.638 57.2122 18.6507 57.6935 18.676C58.2002 18.676 58.7702 18.6887 59.4035 18.714C60.0622 18.714 60.7082 18.7267 61.3415 18.752C62.0002 18.752 62.5955 18.7647 63.1275 18.79V17.878C63.1275 16.89 63.0642 16.1173 62.9375 15.56C62.8108 15.0027 62.5448 14.5973 62.1395 14.344C61.7595 14.0653 61.2022 13.888 60.4675 13.812C59.7328 13.736 58.7828 13.698 57.6175 13.698C57.0602 13.698 56.4015 13.7233 55.6415 13.774C54.9068 13.7993 54.1848 13.8373 53.4755 13.888C52.7662 13.9387 52.2215 14.002 51.8415 14.078V10.886C52.8802 10.6833 54.0202 10.544 55.2615 10.468C56.5028 10.3667 57.7442 10.316 58.9855 10.316C60.4295 10.316 61.6328 10.4047 62.5955 10.582C63.5835 10.7593 64.3815 11.038 64.9895 11.418C65.5975 11.798 66.0535 12.292 66.3575 12.9C66.6615 13.508 66.8768 14.2427 67.0035 15.104C67.1302 15.94 67.1935 16.9027 67.1935 17.992V30H63.4695L63.3175 27.492H63.0895C62.6588 28.3027 62.0762 28.9233 61.3415 29.354C60.6322 29.7593 59.8595 30.0127 59.0235 30.114C58.1875 30.2407 57.3895 30.304 56.6295 30.304ZM58.4155 27.036C59.0488 27.036 59.6188 26.998 60.1255 26.922C60.6575 26.8207 61.1135 26.6687 61.4935 26.466C61.8988 26.238 62.2155 25.934 62.4435 25.554C62.6715 25.1233 62.8362 24.6293 62.9375 24.072C63.0642 23.5147 63.1275 22.856 63.1275 22.096V21.412H57.5795C56.7435 21.412 56.0975 21.4753 55.6415 21.602C55.2108 21.7287 54.9195 21.9947 54.7675 22.4C54.6155 22.8053 54.5395 23.426 54.5395 24.262C54.5395 25.0473 54.6282 25.6427 54.8055 26.048C54.9828 26.428 55.3502 26.694 55.9075 26.846C56.4902 26.9727 57.3262 27.036 58.4155 27.036ZM74.7754 30V14.002H70.8994V10.62H74.7754V4.996H78.8034V10.62H83.3254V14.002H78.8034V30H74.7754ZM93.5863 30.304C92.2436 30.304 91.1416 30.152 90.2803 29.848C89.4443 29.5187 88.7983 29.0373 88.3423 28.404C87.9116 27.7707 87.6203 26.9853 87.4683 26.048C87.3163 25.1107 87.2403 24.0087 87.2403 22.742V10.62H91.2683V21.146C91.2683 22.4127 91.3063 23.426 91.3823 24.186C91.4836 24.9207 91.6736 25.478 91.9523 25.858C92.2309 26.2127 92.6363 26.4407 93.1683 26.542C93.7256 26.6433 94.4603 26.694 95.3723 26.694C96.3856 26.694 97.1963 26.5673 97.8043 26.314C98.4123 26.0607 98.8556 25.6807 99.1343 25.174C99.4383 24.6673 99.6283 24.034 99.7043 23.274C99.7803 22.514 99.8183 21.6273 99.8183 20.614V10.62H103.884V30H100.16L100.008 27.416H99.7423C99.4636 28.024 99.0583 28.5433 98.5263 28.974C98.0196 29.4047 97.3609 29.734 96.5503 29.962C95.7396 30.19 94.7516 30.304 93.5863 30.304Z" fill="white"/>
<path d="M107.711 30L117.059 3.856H122.683L132.031 30H127.585L125.305 23.54H114.285L112.043 30H107.711ZM115.501 19.892H124.051L119.871 7.998H119.681L115.501 19.892ZM143.112 30.304C141.617 30.304 140.376 30.1773 139.388 29.924C138.425 29.6453 137.652 29.2527 137.07 28.746C136.487 28.214 136.056 27.5553 135.778 26.77C135.499 25.9593 135.309 25.022 135.208 23.958C135.132 22.8687 135.094 21.64 135.094 20.272C135.094 18.9293 135.144 17.726 135.246 16.662C135.347 15.598 135.55 14.6733 135.854 13.888C136.183 13.0773 136.639 12.4187 137.222 11.912C137.804 11.38 138.564 10.9873 139.502 10.734C140.439 10.4553 141.617 10.316 143.036 10.316C143.948 10.316 144.898 10.3667 145.886 10.468C146.899 10.5693 147.735 10.696 148.394 10.848V14.04C147.836 13.9387 147.14 13.8627 146.304 13.812C145.493 13.736 144.746 13.698 144.062 13.698C142.972 13.698 142.098 13.7867 141.44 13.964C140.806 14.1413 140.325 14.4707 139.996 14.952C139.666 15.4333 139.438 16.1047 139.312 16.966C139.21 17.8273 139.16 18.942 139.16 20.31C139.16 21.7033 139.21 22.8433 139.312 23.73C139.438 24.6167 139.666 25.288 139.996 25.744C140.35 26.2 140.857 26.5167 141.516 26.694C142.174 26.846 143.048 26.922 144.138 26.922C144.771 26.922 145.48 26.8967 146.266 26.846C147.076 26.77 147.849 26.6813 148.584 26.58V29.772C147.9 29.924 147.051 30.0507 146.038 30.152C145.024 30.2533 144.049 30.304 143.112 30.304ZM158.309 30.304C156.992 30.304 155.877 30.1267 154.965 29.772C154.079 29.4173 153.407 28.8347 152.951 28.024C152.495 27.188 152.267 26.0607 152.267 24.642C152.267 23.1473 152.445 21.9693 152.799 21.108C153.154 20.2213 153.762 19.588 154.623 19.208C155.485 18.828 156.701 18.638 158.271 18.638C158.525 18.638 158.892 18.6507 159.373 18.676C159.88 18.676 160.45 18.6887 161.083 18.714C161.742 18.714 162.388 18.7267 163.021 18.752C163.68 18.752 164.275 18.7647 164.807 18.79V17.878C164.807 16.89 164.744 16.1173 164.617 15.56C164.491 15.0027 164.225 14.5973 163.819 14.344C163.439 14.0653 162.882 13.888 162.147 13.812C161.413 13.736 160.463 13.698 159.297 13.698C158.74 13.698 158.081 13.7233 157.321 13.774C156.587 13.7993 155.865 13.8373 155.155 13.888C154.446 13.9387 153.901 14.002 153.521 14.078V10.886C154.56 10.6833 155.7 10.544 156.941 10.468C158.183 10.3667 159.424 10.316 160.665 10.316C162.109 10.316 163.313 10.4047 164.275 10.582C165.263 10.7593 166.061 11.038 166.669 11.418C167.277 11.798 167.733 12.292 168.037 12.9C168.341 13.508 168.557 14.2427 168.683 15.104C168.81 15.94 168.873 16.9027 168.873 17.992V30H165.149L164.997 27.492H164.769C164.339 28.3027 163.756 28.9233 163.021 29.354C162.312 29.7593 161.539 30.0127 160.703 30.114C159.867 30.2407 159.069 30.304 158.309 30.304ZM160.095 27.036C160.729 27.036 161.299 26.998 161.805 26.922C162.337 26.8207 162.793 26.6687 163.173 26.466C163.579 26.238 163.895 25.934 164.123 25.554C164.351 25.1233 164.516 24.6293 164.617 24.072C164.744 23.5147 164.807 22.856 164.807 22.096V21.412H159.259C158.423 21.412 157.777 21.4753 157.321 21.602C156.891 21.7287 156.599 21.9947 156.447 22.4C156.295 22.8053 156.219 23.426 156.219 24.262C156.219 25.0473 156.308 25.6427 156.485 26.048C156.663 26.428 157.03 26.694 157.587 26.846C158.17 26.9727 159.006 27.036 160.095 27.036ZM181.049 30.304C179.757 30.304 178.667 30.152 177.781 29.848C176.894 29.5187 176.185 28.9867 175.653 28.252C175.121 27.492 174.728 26.466 174.475 25.174C174.247 23.882 174.133 22.2733 174.133 20.348C174.133 18.3973 174.247 16.776 174.475 15.484C174.728 14.192 175.108 13.1787 175.615 12.444C176.147 11.684 176.843 11.1393 177.705 10.81C178.566 10.4807 179.63 10.316 180.897 10.316C181.834 10.316 182.683 10.392 183.443 10.544C184.203 10.696 184.874 10.962 185.457 11.342C186.065 11.6967 186.546 12.216 186.901 12.9H187.167V1.766H191.195V30H187.471L187.319 27.454H187.091C186.711 28.2647 186.191 28.8727 185.533 29.278C184.899 29.6833 184.19 29.9493 183.405 30.076C182.619 30.228 181.834 30.304 181.049 30.304ZM182.683 26.732C183.797 26.732 184.659 26.5927 185.267 26.314C185.9 26.01 186.343 25.5413 186.597 24.908C186.85 24.3253 187.002 23.654 187.053 22.894C187.129 22.134 187.167 21.2473 187.167 20.234C187.167 19.2713 187.129 18.4353 187.053 17.726C187.002 16.9913 186.863 16.3707 186.635 15.864C186.356 15.18 185.9 14.686 185.267 14.382C184.659 14.078 183.797 13.926 182.683 13.926C181.669 13.926 180.859 14.002 180.251 14.154C179.668 14.2807 179.225 14.5593 178.921 14.99C178.642 15.3953 178.452 16.0287 178.351 16.89C178.249 17.726 178.199 18.866 178.199 20.31C178.199 21.754 178.249 22.9067 178.351 23.768C178.452 24.604 178.655 25.2373 178.959 25.668C179.263 26.0987 179.706 26.39 180.289 26.542C180.897 26.6687 181.695 26.732 182.683 26.732ZM205.441 30.304C203.795 30.304 202.427 30.2027 201.337 30C200.248 29.772 199.374 29.4173 198.715 28.936C198.057 28.4293 197.563 27.796 197.233 27.036C196.904 26.2507 196.689 25.3133 196.587 24.224C196.486 23.1093 196.435 21.8173 196.435 20.348C196.435 18.6 196.524 17.0927 196.701 15.826C196.879 14.5593 197.246 13.5207 197.803 12.71C198.361 11.874 199.222 11.266 200.387 10.886C201.578 10.506 203.161 10.316 205.137 10.316C206.683 10.316 207.949 10.4427 208.937 10.696C209.925 10.924 210.698 11.2913 211.255 11.798C211.838 12.3047 212.256 12.9633 212.509 13.774C212.788 14.5593 212.965 15.5093 213.041 16.624C213.117 17.7133 213.155 18.9547 213.155 20.348V21.64H200.501C200.501 22.78 200.552 23.7047 200.653 24.414C200.755 25.098 200.983 25.63 201.337 26.01C201.717 26.3647 202.3 26.618 203.085 26.77C203.896 26.8967 204.985 26.96 206.353 26.96C206.936 26.96 207.569 26.9473 208.253 26.922C208.963 26.8967 209.685 26.846 210.419 26.77C211.154 26.694 211.813 26.6307 212.395 26.58V29.734C211.838 29.8353 211.167 29.924 210.381 30C209.596 30.1013 208.773 30.1773 207.911 30.228C207.05 30.2787 206.227 30.304 205.441 30.304ZM209.279 19.474V18.752C209.279 17.612 209.203 16.7127 209.051 16.054C208.925 15.37 208.697 14.8633 208.367 14.534C208.063 14.1793 207.633 13.9513 207.075 13.85C206.543 13.7233 205.872 13.66 205.061 13.66C204.048 13.66 203.237 13.736 202.629 13.888C202.047 14.0147 201.603 14.268 201.299 14.648C200.995 15.028 200.78 15.56 200.653 16.244C200.552 16.9027 200.501 17.7767 200.501 18.866H209.963L209.279 19.474ZM218.385 30V10.62H222.109L222.223 13.204H222.489C222.767 12.596 223.147 12.0767 223.629 11.646C224.135 11.2153 224.756 10.886 225.491 10.658C226.251 10.43 227.163 10.316 228.227 10.316C229.848 10.316 231.064 10.5567 231.875 11.038C232.685 11.494 233.255 12.216 233.585 13.204H233.889C234.167 12.596 234.56 12.0767 235.067 11.646C235.599 11.2153 236.245 10.886 237.005 10.658C237.79 10.43 238.715 10.316 239.779 10.316C241.451 10.316 242.705 10.5947 243.541 11.152C244.377 11.7093 244.934 12.558 245.213 13.698C245.491 14.8127 245.631 16.206 245.631 17.878V30H241.603V19.474C241.603 18.2073 241.565 17.2067 241.489 16.472C241.413 15.712 241.248 15.1547 240.995 14.8C240.767 14.42 240.399 14.1793 239.893 14.078C239.411 13.9767 238.778 13.926 237.993 13.926C237.081 13.926 236.359 14.0527 235.827 14.306C235.295 14.534 234.902 14.9013 234.649 15.408C234.395 15.8893 234.231 16.51 234.155 17.27C234.079 18.03 234.041 18.942 234.041 20.006V30H230.013V19.474C230.013 18.2073 229.962 17.2067 229.861 16.472C229.785 15.712 229.62 15.1547 229.367 14.8C229.139 14.42 228.784 14.1793 228.303 14.078C227.821 13.9767 227.175 13.926 226.365 13.926C225.478 13.926 224.769 14.0527 224.237 14.306C223.705 14.5593 223.299 14.9393 223.021 15.446C222.767 15.9273 222.603 16.5607 222.527 17.346C222.451 18.106 222.413 18.9927 222.413 20.006V30H218.385ZM259.348 37.828C258.613 37.828 257.841 37.8027 257.03 37.752C256.245 37.7267 255.485 37.6887 254.75 37.638C254.041 37.5873 253.407 37.524 252.85 37.448V34.294C253.762 34.3193 254.547 34.3447 255.206 34.37C255.89 34.3953 256.498 34.408 257.03 34.408C257.562 34.4333 258.031 34.446 258.436 34.446C259.804 34.446 260.881 34.3573 261.666 34.18C262.451 34.0027 263.034 33.6987 263.414 33.268C263.794 32.8373 264.022 32.242 264.098 31.482C264.199 30.7473 264.25 29.81 264.25 28.67V27.492H264.022C263.769 28.0493 263.389 28.5307 262.882 28.936C262.401 29.316 261.755 29.62 260.944 29.848C260.159 30.0507 259.183 30.152 258.018 30.152C256.675 30.152 255.573 30 254.712 29.696C253.876 29.3667 253.23 28.898 252.774 28.29C252.343 27.6567 252.052 26.8713 251.9 25.934C251.748 24.9967 251.672 23.9073 251.672 22.666V10.62H255.7V21.07C255.7 22.3367 255.738 23.35 255.814 24.11C255.915 24.8447 256.105 25.3893 256.384 25.744C256.663 26.0987 257.068 26.3393 257.6 26.466C258.157 26.5673 258.892 26.618 259.804 26.618C260.817 26.618 261.628 26.4913 262.236 26.238C262.844 25.9847 263.287 25.6047 263.566 25.098C263.87 24.5913 264.06 23.958 264.136 23.198C264.212 22.438 264.25 21.5513 264.25 20.538V10.62H268.316V27.72C268.316 29.5187 268.215 31.0513 268.012 32.318C267.835 33.61 267.442 34.6613 266.834 35.472C266.251 36.2827 265.365 36.878 264.174 37.258C262.983 37.638 261.375 37.828 259.348 37.828Z" fill="#6FB018"/>
</svg>
