<svg width="40" height="40" viewBox="0 0 40 40" fill="none" xmlns="http://www.w3.org/2000/svg">
<path d="M11.6634 0C5.23174 0 0 5.23659 0 11.6699V28.3366C0 34.7683 5.23659 40 11.6699 40H28.3366C34.7683 40 40 34.7634 40 28.3301V11.6634C40 5.23174 34.7634 0 28.3301 0H11.6634ZM31.6667 6.66667C32.5867 6.66667 33.3333 7.41333 33.3333 8.33333C33.3333 9.25333 32.5867 10 31.6667 10C30.7467 10 30 9.25333 30 8.33333C30 7.41333 30.7467 6.66667 31.6667 6.66667ZM20 10C25.515 10 30 14.485 30 20C30 25.515 25.515 30 20 30C14.485 30 10 25.515 10 20C10 14.485 14.485 10 20 10ZM20 13.3333C18.2319 13.3333 16.5362 14.0357 15.286 15.286C14.0357 16.5362 13.3333 18.2319 13.3333 20C13.3333 21.7681 14.0357 23.4638 15.286 24.714C16.5362 25.9643 18.2319 26.6667 20 26.6667C21.7681 26.6667 23.4638 25.9643 24.714 24.714C25.9643 23.4638 26.6667 21.7681 26.6667 20C26.6667 18.2319 25.9643 16.5362 24.714 15.286C23.4638 14.0357 21.7681 13.3333 20 13.3333Z" fill="#B8B8B8"/>
</svg>
