<svg width="40" height="40" viewBox="0 0 40 40" fill="none" xmlns="http://www.w3.org/2000/svg">
<path d="M3.63636 0C1.62727 0 0 1.62727 0 3.63636V36.3636C0 38.3727 1.62727 40 3.63636 40H36.3636C38.3727 40 40 38.3727 40 36.3636V3.63636C40 1.62727 38.3727 0 36.3636 0H3.63636ZM8.4517 9.09091H16.8359L21.7294 16.0866L27.7841 9.09091H30.4226L22.9155 17.7841L32.0987 30.9091H23.7145L18.2848 23.1463L11.5803 30.9091H8.89915L17.0916 21.4453L8.4517 9.09091ZM12.5071 11.2429L24.7869 28.7465H28.0398L15.7564 11.2429H12.5071Z" fill="#B8B8B8"/>
</svg>
