<svg width="180" height="23" viewBox="0 0 180 23" fill="none" xmlns="http://www.w3.org/2000/svg">
<path d="M0.000234604 22.29V1.65004H6.75023C8.49023 1.65004 9.91023 1.74004 11.0102 1.92004C12.1302 2.08004 13.0102 2.38004 13.6502 2.82004C14.2902 3.26004 14.7502 3.87004 15.0302 4.65004C15.3302 5.43004 15.5202 6.42004 15.6002 7.62004C15.6802 8.82004 15.7202 10.27 15.7202 11.97C15.7202 13.67 15.6802 15.12 15.6002 16.32C15.5202 17.52 15.3302 18.51 15.0302 19.29C14.7502 20.07 14.2902 20.68 13.6502 21.12C13.0102 21.56 12.1302 21.87 11.0102 22.05C9.91023 22.21 8.49023 22.29 6.75023 22.29H0.000234604ZM3.39023 19.41H6.45023C7.57023 19.41 8.49023 19.39 9.21023 19.35C9.95023 19.29 10.5302 19.15 10.9502 18.93C11.3702 18.69 11.6802 18.31 11.8802 17.79C12.0802 17.27 12.2002 16.54 12.2402 15.6C12.3002 14.64 12.3302 13.43 12.3302 11.97C12.3302 10.51 12.3002 9.31004 12.2402 8.37004C12.2002 7.43004 12.0702 6.70004 11.8502 6.18004C11.6502 5.64004 11.3302 5.26004 10.8902 5.04004C10.4702 4.80004 9.90023 4.66004 9.18024 4.62004C8.46024 4.56004 7.55023 4.53004 6.45023 4.53004H3.39023V19.41ZM20.1766 22.29V3.8147e-05H23.3566V8.88004H23.5666C23.8066 8.42004 24.1266 8.04004 24.5266 7.74004C24.9266 7.42004 25.4266 7.18004 26.0266 7.02004C26.6466 6.86004 27.3966 6.78004 28.2766 6.78004C29.3566 6.78004 30.2266 6.90004 30.8866 7.14004C31.5666 7.38004 32.0766 7.75004 32.4166 8.25004C32.7566 8.75004 32.9866 9.37004 33.1066 10.11C33.2466 10.85 33.3166 11.72 33.3166 12.72V22.29H30.1066V13.98C30.1066 12.98 30.0666 12.19 29.9866 11.61C29.9266 11.01 29.7866 10.57 29.5666 10.29C29.3466 9.99004 29.0166 9.80004 28.5766 9.72004C28.1566 9.64004 27.5866 9.60004 26.8666 9.60004C26.0666 9.60004 25.4266 9.70004 24.9466 9.90004C24.4866 10.1 24.1366 10.4 23.8966 10.8C23.6766 11.2 23.5266 11.7 23.4466 12.3C23.3866 12.9 23.3566 13.6 23.3566 14.4V22.29H20.1766ZM41.9477 22.53C40.9077 22.53 40.0277 22.39 39.3077 22.11C38.6077 21.83 38.0777 21.37 37.7177 20.73C37.3577 20.07 37.1777 19.18 37.1777 18.06C37.1777 16.88 37.3177 15.95 37.5977 15.27C37.8777 14.57 38.3577 14.07 39.0377 13.77C39.7177 13.47 40.6777 13.32 41.9177 13.32C42.1177 13.32 42.4077 13.33 42.7877 13.35C43.1877 13.35 43.6377 13.36 44.1377 13.38C44.6577 13.38 45.1677 13.39 45.6677 13.41C46.1877 13.41 46.6577 13.42 47.0777 13.44V12.72C47.0777 11.94 47.0277 11.33 46.9277 10.89C46.8277 10.45 46.6177 10.13 46.2977 9.93004C45.9977 9.71004 45.5577 9.57004 44.9777 9.51004C44.3977 9.45004 43.6477 9.42004 42.7277 9.42004C42.2877 9.42004 41.7677 9.44004 41.1677 9.48004C40.5877 9.50004 40.0177 9.53004 39.4577 9.57004C38.8977 9.61004 38.4677 9.66004 38.1677 9.72004V7.20004C38.9877 7.04004 39.8877 6.93004 40.8677 6.87004C41.8477 6.79004 42.8277 6.75004 43.8077 6.75004C44.9477 6.75004 45.8977 6.82004 46.6577 6.96004C47.4377 7.10004 48.0677 7.32004 48.5477 7.62004C49.0277 7.92004 49.3877 8.31004 49.6277 8.79004C49.8677 9.27004 50.0377 9.85004 50.1377 10.53C50.2377 11.19 50.2877 11.95 50.2877 12.81V22.29H47.3477L47.2277 20.31H47.0477C46.7077 20.95 46.2477 21.44 45.6677 21.78C45.1077 22.1 44.4977 22.3 43.8377 22.38C43.1777 22.48 42.5477 22.53 41.9477 22.53ZM43.3577 19.95C43.8577 19.95 44.3077 19.92 44.7077 19.86C45.1277 19.78 45.4877 19.66 45.7877 19.5C46.1077 19.32 46.3577 19.08 46.5377 18.78C46.7177 18.44 46.8477 18.05 46.9277 17.61C47.0277 17.17 47.0777 16.65 47.0777 16.05V15.51H42.6977C42.0377 15.51 41.5277 15.56 41.1677 15.66C40.8277 15.76 40.5977 15.97 40.4777 16.29C40.3577 16.61 40.2977 17.1 40.2977 17.76C40.2977 18.38 40.3677 18.85 40.5077 19.17C40.6477 19.47 40.9377 19.68 41.3777 19.8C41.8377 19.9 42.4977 19.95 43.3577 19.95ZM56.2734 22.29V9.66004H53.2134V6.99004H56.2734V2.55004H59.4534V6.99004H63.0234V9.66004H59.4534V22.29H56.2734ZM71.1241 22.53C70.0641 22.53 69.1941 22.41 68.5141 22.17C67.8541 21.91 67.3441 21.53 66.9841 21.03C66.6441 20.53 66.4141 19.91 66.2941 19.17C66.1741 18.43 66.1141 17.56 66.1141 16.56V6.99004H69.2941V15.3C69.2941 16.3 69.3241 17.1 69.3841 17.7C69.4641 18.28 69.6141 18.72 69.8341 19.02C70.0541 19.3 70.3741 19.48 70.7941 19.56C71.2341 19.64 71.8141 19.68 72.5341 19.68C73.3341 19.68 73.9741 19.58 74.4541 19.38C74.9341 19.18 75.2841 18.88 75.5041 18.48C75.7441 18.08 75.8941 17.58 75.9541 16.98C76.0141 16.38 76.0441 15.68 76.0441 14.88V6.99004H79.2541V22.29H76.3141L76.1941 20.25H75.9841C75.7641 20.73 75.4441 21.14 75.0241 21.48C74.6241 21.82 74.1041 22.08 73.4641 22.26C72.8241 22.44 72.0441 22.53 71.1241 22.53Z" fill="#4B0081"/>
<path d="M92.1452 22.53C90.6652 22.53 89.4252 22.44 88.4252 22.26C87.4252 22.06 86.6052 21.73 85.9652 21.27C85.3452 20.81 84.8652 20.19 84.5252 19.41C84.2052 18.61 83.9852 17.6 83.8652 16.38C83.7452 15.16 83.6852 13.69 83.6852 11.97C83.6852 10.25 83.7452 8.78004 83.8652 7.56004C83.9852 6.34004 84.2052 5.34004 84.5252 4.56004C84.8652 3.76004 85.3452 3.13004 85.9652 2.67004C86.6052 2.21004 87.4252 1.89004 88.4252 1.71004C89.4252 1.51004 90.6652 1.41004 92.1452 1.41004C92.7252 1.41004 93.3152 1.43004 93.9152 1.47004C94.5352 1.51004 95.1252 1.57004 95.6852 1.65004C96.2452 1.71004 96.7252 1.79004 97.1252 1.89004V4.59004C96.6252 4.53004 96.1252 4.48004 95.6252 4.44004C95.1452 4.38004 94.6752 4.34004 94.2152 4.32004C93.7552 4.30004 93.3552 4.29004 93.0152 4.29004C91.9152 4.29004 91.0052 4.33004 90.2852 4.41004C89.5652 4.49004 88.9852 4.67004 88.5452 4.95004C88.1252 5.23004 87.8052 5.65004 87.5852 6.21004C87.3852 6.75004 87.2452 7.49004 87.1652 8.43004C87.1052 9.37004 87.0752 10.55 87.0752 11.97C87.0752 13.37 87.1052 14.55 87.1652 15.51C87.2452 16.45 87.3852 17.2 87.5852 17.76C87.8052 18.3 88.1252 18.71 88.5452 18.99C88.9852 19.27 89.5652 19.45 90.2852 19.53C91.0052 19.61 91.9152 19.65 93.0152 19.65C93.6752 19.65 94.3952 19.62 95.1752 19.56C95.9752 19.5 96.6652 19.43 97.2452 19.35V22.11C96.8052 22.19 96.2852 22.26 95.6852 22.32C95.1052 22.38 94.5052 22.43 93.8852 22.47C93.2852 22.51 92.7052 22.53 92.1452 22.53ZM107.423 22.53C106.143 22.53 105.073 22.45 104.213 22.29C103.373 22.13 102.703 21.88 102.203 21.54C101.723 21.18 101.363 20.7 101.123 20.1C100.903 19.5 100.753 18.75 100.673 17.85C100.613 16.95 100.583 15.87 100.583 14.61C100.583 13.37 100.613 12.3 100.673 11.4C100.753 10.5 100.903 9.75004 101.123 9.15004C101.363 8.55004 101.723 8.08004 102.203 7.74004C102.703 7.38004 103.373 7.13004 104.213 6.99004C105.073 6.83004 106.143 6.75004 107.423 6.75004C108.723 6.75004 109.793 6.83004 110.633 6.99004C111.493 7.13004 112.163 7.38004 112.643 7.74004C113.143 8.08004 113.503 8.55004 113.723 9.15004C113.963 9.75004 114.113 10.5 114.173 11.4C114.253 12.3 114.293 13.37 114.293 14.61C114.293 15.87 114.253 16.95 114.173 17.85C114.113 18.75 113.963 19.5 113.723 20.1C113.503 20.7 113.143 21.18 112.643 21.54C112.163 21.88 111.493 22.13 110.633 22.29C109.793 22.45 108.723 22.53 107.423 22.53ZM107.423 19.86C108.343 19.86 109.053 19.8 109.553 19.68C110.053 19.56 110.403 19.32 110.603 18.96C110.823 18.6 110.953 18.07 110.993 17.37C111.053 16.67 111.083 15.75 111.083 14.61C111.083 13.47 111.053 12.56 110.993 11.88C110.953 11.18 110.823 10.65 110.603 10.29C110.403 9.93004 110.053 9.70004 109.553 9.60004C109.053 9.48004 108.343 9.42004 107.423 9.42004C106.523 9.42004 105.823 9.48004 105.323 9.60004C104.823 9.70004 104.463 9.93004 104.243 10.29C104.043 10.65 103.913 11.18 103.853 11.88C103.813 12.56 103.793 13.47 103.793 14.61C103.793 15.75 103.813 16.67 103.853 17.37C103.913 18.07 104.043 18.6 104.243 18.96C104.463 19.32 104.823 19.56 105.323 19.68C105.823 19.8 106.523 19.86 107.423 19.86ZM118.438 22.29V6.99004H121.378L121.468 9.03004H121.708C121.948 8.53004 122.268 8.12004 122.668 7.80004C123.068 7.46004 123.588 7.20004 124.228 7.02004C124.868 6.84004 125.648 6.75004 126.568 6.75004C127.648 6.75004 128.518 6.88004 129.178 7.14004C129.838 7.38004 130.338 7.75004 130.678 8.25004C131.018 8.75004 131.248 9.37004 131.368 10.11C131.508 10.85 131.578 11.72 131.578 12.72V22.29H128.368V13.98C128.368 12.98 128.328 12.19 128.248 11.61C128.188 11.01 128.048 10.57 127.828 10.29C127.608 9.99004 127.278 9.80004 126.838 9.72004C126.418 9.64004 125.848 9.60004 125.128 9.60004C124.328 9.60004 123.688 9.70004 123.208 9.90004C122.748 10.1 122.398 10.4 122.158 10.8C121.938 11.2 121.788 11.7 121.708 12.3C121.648 12.9 121.618 13.6 121.618 14.4V22.29H118.438ZM137.689 22.29V9.66004H134.629V6.99004H137.689V2.55004H140.869V6.99004H144.439V9.66004H140.869V22.29H137.689ZM147.53 22.29V6.99004H150.44L150.56 9.75004H150.8C151.06 8.95004 151.42 8.33004 151.88 7.89004C152.34 7.45004 152.9 7.15004 153.56 6.99004C154.22 6.83004 154.97 6.75004 155.81 6.75004V9.87004C154.45 9.87004 153.4 10.07 152.66 10.47C151.94 10.87 151.43 11.51 151.13 12.39C150.85 13.25 150.71 14.38 150.71 15.78V22.29H147.53ZM165.02 22.53C163.74 22.53 162.67 22.45 161.81 22.29C160.97 22.13 160.3 21.88 159.8 21.54C159.32 21.18 158.96 20.7 158.72 20.1C158.5 19.5 158.35 18.75 158.27 17.85C158.21 16.95 158.18 15.87 158.18 14.61C158.18 13.37 158.21 12.3 158.27 11.4C158.35 10.5 158.5 9.75004 158.72 9.15004C158.96 8.55004 159.32 8.08004 159.8 7.74004C160.3 7.38004 160.97 7.13004 161.81 6.99004C162.67 6.83004 163.74 6.75004 165.02 6.75004C166.32 6.75004 167.39 6.83004 168.23 6.99004C169.09 7.13004 169.76 7.38004 170.24 7.74004C170.74 8.08004 171.1 8.55004 171.32 9.15004C171.56 9.75004 171.71 10.5 171.77 11.4C171.85 12.3 171.89 13.37 171.89 14.61C171.89 15.87 171.85 16.95 171.77 17.85C171.71 18.75 171.56 19.5 171.32 20.1C171.1 20.7 170.74 21.18 170.24 21.54C169.76 21.88 169.09 22.13 168.23 22.29C167.39 22.45 166.32 22.53 165.02 22.53ZM165.02 19.86C165.94 19.86 166.65 19.8 167.15 19.68C167.65 19.56 168 19.32 168.2 18.96C168.42 18.6 168.55 18.07 168.59 17.37C168.65 16.67 168.68 15.75 168.68 14.61C168.68 13.47 168.65 12.56 168.59 11.88C168.55 11.18 168.42 10.65 168.2 10.29C168 9.93004 167.65 9.70004 167.15 9.60004C166.65 9.48004 165.94 9.42004 165.02 9.42004C164.12 9.42004 163.42 9.48004 162.92 9.60004C162.42 9.70004 162.06 9.93004 161.84 10.29C161.64 10.65 161.51 11.18 161.45 11.88C161.41 12.56 161.39 13.47 161.39 14.61C161.39 15.75 161.41 16.67 161.45 17.37C161.51 18.07 161.64 18.6 161.84 18.96C162.06 19.32 162.42 19.56 162.92 19.68C163.42 19.8 164.12 19.86 165.02 19.86ZM176.036 22.29V3.8147e-05H179.216V22.29H176.036Z" fill="#6FB018"/>
</svg>
