<svg width="134" height="29" viewBox="0 0 134 29" fill="none" xmlns="http://www.w3.org/2000/svg">
<path d="M0.000234604 22.29V1.65004H6.75023C8.49023 1.65004 9.91023 1.74004 11.0102 1.92004C12.1302 2.08004 13.0102 2.38004 13.6502 2.82004C14.2902 3.26004 14.7502 3.87004 15.0302 4.65004C15.3302 5.43004 15.5202 6.42004 15.6002 7.62004C15.6802 8.82004 15.7202 10.27 15.7202 11.97C15.7202 13.67 15.6802 15.12 15.6002 16.32C15.5202 17.52 15.3302 18.51 15.0302 19.29C14.7502 20.07 14.2902 20.68 13.6502 21.12C13.0102 21.56 12.1302 21.87 11.0102 22.05C9.91023 22.21 8.49023 22.29 6.75023 22.29H0.000234604ZM3.39023 19.41H6.45023C7.57023 19.41 8.49023 19.39 9.21023 19.35C9.95023 19.29 10.5302 19.15 10.9502 18.93C11.3702 18.69 11.6802 18.31 11.8802 17.79C12.0802 17.27 12.2002 16.54 12.2402 15.6C12.3002 14.64 12.3302 13.43 12.3302 11.97C12.3302 10.51 12.3002 9.31004 12.2402 8.37004C12.2002 7.43004 12.0702 6.70004 11.8502 6.18004C11.6502 5.64004 11.3302 5.26004 10.8902 5.04004C10.4702 4.80004 9.90023 4.66004 9.18024 4.62004C8.46024 4.56004 7.55023 4.53004 6.45023 4.53004H3.39023V19.41ZM20.1766 22.29V3.8147e-05H23.3566V8.88004H23.5666C23.8066 8.42004 24.1266 8.04004 24.5266 7.74004C24.9266 7.42004 25.4266 7.18004 26.0266 7.02004C26.6466 6.86004 27.3966 6.78004 28.2766 6.78004C29.3566 6.78004 30.2266 6.90004 30.8866 7.14004C31.5666 7.38004 32.0766 7.75004 32.4166 8.25004C32.7566 8.75004 32.9866 9.37004 33.1066 10.11C33.2466 10.85 33.3166 11.72 33.3166 12.72V22.29H30.1066V13.98C30.1066 12.98 30.0666 12.19 29.9866 11.61C29.9266 11.01 29.7866 10.57 29.5666 10.29C29.3466 9.99004 29.0166 9.80004 28.5766 9.72004C28.1566 9.64004 27.5866 9.60004 26.8666 9.60004C26.0666 9.60004 25.4266 9.70004 24.9466 9.90004C24.4866 10.1 24.1366 10.4 23.8966 10.8C23.6766 11.2 23.5266 11.7 23.4466 12.3C23.3866 12.9 23.3566 13.6 23.3566 14.4V22.29H20.1766ZM41.9477 22.53C40.9077 22.53 40.0277 22.39 39.3077 22.11C38.6077 21.83 38.0777 21.37 37.7177 20.73C37.3577 20.07 37.1777 19.18 37.1777 18.06C37.1777 16.88 37.3177 15.95 37.5977 15.27C37.8777 14.57 38.3577 14.07 39.0377 13.77C39.7177 13.47 40.6777 13.32 41.9177 13.32C42.1177 13.32 42.4077 13.33 42.7877 13.35C43.1877 13.35 43.6377 13.36 44.1377 13.38C44.6577 13.38 45.1677 13.39 45.6677 13.41C46.1877 13.41 46.6577 13.42 47.0777 13.44V12.72C47.0777 11.94 47.0277 11.33 46.9277 10.89C46.8277 10.45 46.6177 10.13 46.2977 9.93004C45.9977 9.71004 45.5577 9.57004 44.9777 9.51004C44.3977 9.45004 43.6477 9.42004 42.7277 9.42004C42.2877 9.42004 41.7677 9.44004 41.1677 9.48004C40.5877 9.50004 40.0177 9.53004 39.4577 9.57004C38.8977 9.61004 38.4677 9.66004 38.1677 9.72004V7.20004C38.9877 7.04004 39.8877 6.93004 40.8677 6.87004C41.8477 6.79004 42.8277 6.75004 43.8077 6.75004C44.9477 6.75004 45.8977 6.82004 46.6577 6.96004C47.4377 7.10004 48.0677 7.32004 48.5477 7.62004C49.0277 7.92004 49.3877 8.31004 49.6277 8.79004C49.8677 9.27004 50.0377 9.85004 50.1377 10.53C50.2377 11.19 50.2877 11.95 50.2877 12.81V22.29H47.3477L47.2277 20.31H47.0477C46.7077 20.95 46.2477 21.44 45.6677 21.78C45.1077 22.1 44.4977 22.3 43.8377 22.38C43.1777 22.48 42.5477 22.53 41.9477 22.53ZM43.3577 19.95C43.8577 19.95 44.3077 19.92 44.7077 19.86C45.1277 19.78 45.4877 19.66 45.7877 19.5C46.1077 19.32 46.3577 19.08 46.5377 18.78C46.7177 18.44 46.8477 18.05 46.9277 17.61C47.0277 17.17 47.0777 16.65 47.0777 16.05V15.51H42.6977C42.0377 15.51 41.5277 15.56 41.1677 15.66C40.8277 15.76 40.5977 15.97 40.4777 16.29C40.3577 16.61 40.2977 17.1 40.2977 17.76C40.2977 18.38 40.3677 18.85 40.5077 19.17C40.6477 19.47 40.9377 19.68 41.3777 19.8C41.8377 19.9 42.4977 19.95 43.3577 19.95ZM56.2734 22.29V9.66004H53.2134V6.99004H56.2734V2.55004H59.4534V6.99004H63.0234V9.66004H59.4534V22.29H56.2734ZM71.1241 22.53C70.0641 22.53 69.1941 22.41 68.5141 22.17C67.8541 21.91 67.3441 21.53 66.9841 21.03C66.6441 20.53 66.4141 19.91 66.2941 19.17C66.1741 18.43 66.1141 17.56 66.1141 16.56V6.99004H69.2941V15.3C69.2941 16.3 69.3241 17.1 69.3841 17.7C69.4641 18.28 69.6141 18.72 69.8341 19.02C70.0541 19.3 70.3741 19.48 70.7941 19.56C71.2341 19.64 71.8141 19.68 72.5341 19.68C73.3341 19.68 73.9741 19.58 74.4541 19.38C74.9341 19.18 75.2841 18.88 75.5041 18.48C75.7441 18.08 75.8941 17.58 75.9541 16.98C76.0141 16.38 76.0441 15.68 76.0441 14.88V6.99004H79.2541V22.29H76.3141L76.1941 20.25H75.9841C75.7641 20.73 75.4441 21.14 75.0241 21.48C74.6241 21.82 74.1041 22.08 73.4641 22.26C72.8241 22.44 72.0441 22.53 71.1241 22.53Z" fill="#4B0081"/>
<path d="M84.3752 22.29V1.65004H93.6152C94.9152 1.65004 95.9652 1.81004 96.7652 2.13004C97.5652 2.45004 98.1752 2.91004 98.5952 3.51004C99.0352 4.09004 99.3252 4.79004 99.4652 5.61004C99.6252 6.43004 99.7052 7.34004 99.7052 8.34004C99.7052 9.28004 99.6352 10.16 99.4952 10.98C99.3552 11.78 99.0652 12.49 98.6252 13.11C98.2052 13.71 97.5852 14.18 96.7652 14.52C95.9452 14.86 94.8652 15.03 93.5252 15.03H87.7652V22.29H84.3752ZM87.7652 12.15H92.2352C93.1752 12.15 93.9252 12.09 94.4852 11.97C95.0452 11.85 95.4452 11.64 95.6852 11.34C95.9452 11.04 96.1152 10.65 96.1952 10.17C96.2752 9.69004 96.3152 9.08004 96.3152 8.34004C96.3152 7.60004 96.2752 6.99004 96.1952 6.51004C96.1352 6.01004 95.9752 5.62004 95.7152 5.34004C95.4752 5.04004 95.0852 4.83004 94.5452 4.71004C94.0052 4.59004 93.2652 4.53004 92.3252 4.53004H87.7652V12.15ZM107.397 22.53C106.357 22.53 105.477 22.39 104.757 22.11C104.057 21.83 103.527 21.37 103.167 20.73C102.807 20.07 102.627 19.18 102.627 18.06C102.627 16.88 102.767 15.95 103.047 15.27C103.327 14.57 103.807 14.07 104.487 13.77C105.167 13.47 106.127 13.32 107.367 13.32C107.567 13.32 107.857 13.33 108.237 13.35C108.637 13.35 109.087 13.36 109.587 13.38C110.107 13.38 110.617 13.39 111.117 13.41C111.637 13.41 112.107 13.42 112.527 13.44V12.72C112.527 11.94 112.477 11.33 112.377 10.89C112.277 10.45 112.067 10.13 111.747 9.93004C111.447 9.71004 111.007 9.57004 110.427 9.51004C109.847 9.45004 109.097 9.42004 108.177 9.42004C107.737 9.42004 107.217 9.44004 106.617 9.48004C106.037 9.50004 105.467 9.53004 104.907 9.57004C104.347 9.61004 103.917 9.66004 103.617 9.72004V7.20004C104.437 7.04004 105.337 6.93004 106.317 6.87004C107.297 6.79004 108.277 6.75004 109.257 6.75004C110.397 6.75004 111.347 6.82004 112.107 6.96004C112.887 7.10004 113.517 7.32004 113.997 7.62004C114.477 7.92004 114.837 8.31004 115.077 8.79004C115.317 9.27004 115.487 9.85004 115.587 10.53C115.687 11.19 115.737 11.95 115.737 12.81V22.29H112.797L112.677 20.31H112.497C112.157 20.95 111.697 21.44 111.117 21.78C110.557 22.1 109.947 22.3 109.287 22.38C108.627 22.48 107.997 22.53 107.397 22.53ZM108.807 19.95C109.307 19.95 109.757 19.92 110.157 19.86C110.577 19.78 110.937 19.66 111.237 19.5C111.557 19.32 111.807 19.08 111.987 18.78C112.167 18.44 112.297 18.05 112.377 17.61C112.477 17.17 112.527 16.65 112.527 16.05V15.51H108.147C107.487 15.51 106.977 15.56 106.617 15.66C106.277 15.76 106.047 15.97 105.927 16.29C105.807 16.61 105.747 17.1 105.747 17.76C105.747 18.38 105.817 18.85 105.957 19.17C106.097 19.47 106.387 19.68 106.827 19.8C107.287 19.9 107.947 19.95 108.807 19.95ZM126.549 28.47C125.969 28.47 125.359 28.45 124.719 28.41C124.099 28.39 123.499 28.36 122.919 28.32C122.359 28.28 121.859 28.23 121.419 28.17V25.68C122.139 25.7 122.759 25.72 123.279 25.74C123.819 25.76 124.299 25.77 124.719 25.77C125.139 25.79 125.509 25.8 125.829 25.8C126.909 25.8 127.759 25.73 128.379 25.59C128.999 25.45 129.459 25.21 129.759 24.87C130.059 24.53 130.239 24.06 130.299 23.46C130.379 22.88 130.419 22.14 130.419 21.24V20.31H130.239C130.039 20.75 129.739 21.13 129.339 21.45C128.959 21.75 128.449 21.99 127.809 22.17C127.189 22.33 126.419 22.41 125.499 22.41C124.439 22.41 123.569 22.29 122.889 22.05C122.229 21.79 121.719 21.42 121.359 20.94C121.019 20.44 120.789 19.82 120.669 19.08C120.549 18.34 120.489 17.48 120.489 16.5V6.99004H123.669V15.24C123.669 16.24 123.699 17.04 123.759 17.64C123.839 18.22 123.989 18.65 124.209 18.93C124.429 19.21 124.749 19.4 125.169 19.5C125.609 19.58 126.189 19.62 126.909 19.62C127.709 19.62 128.349 19.52 128.829 19.32C129.309 19.12 129.659 18.82 129.879 18.42C130.119 18.02 130.269 17.52 130.329 16.92C130.389 16.32 130.419 15.62 130.419 14.82V6.99004H133.629V20.49C133.629 21.91 133.549 23.12 133.389 24.12C133.249 25.14 132.939 25.97 132.459 26.61C131.999 27.25 131.299 27.72 130.359 28.02C129.419 28.32 128.149 28.47 126.549 28.47Z" fill="#6FB018"/>
</svg>
