<svg width="150" height="23" viewBox="0 0 150 23" fill="none" xmlns="http://www.w3.org/2000/svg">
<path d="M0.000234604 22.29V1.65004H6.75023C8.49023 1.65004 9.91023 1.74004 11.0102 1.92004C12.1302 2.08004 13.0102 2.38004 13.6502 2.82004C14.2902 3.26004 14.7502 3.87004 15.0302 4.65004C15.3302 5.43004 15.5202 6.42004 15.6002 7.62004C15.6802 8.82004 15.7202 10.27 15.7202 11.97C15.7202 13.67 15.6802 15.12 15.6002 16.32C15.5202 17.52 15.3302 18.51 15.0302 19.29C14.7502 20.07 14.2902 20.68 13.6502 21.12C13.0102 21.56 12.1302 21.87 11.0102 22.05C9.91023 22.21 8.49023 22.29 6.75023 22.29H0.000234604ZM3.39023 19.41H6.45023C7.57023 19.41 8.49023 19.39 9.21023 19.35C9.95023 19.29 10.5302 19.15 10.9502 18.93C11.3702 18.69 11.6802 18.31 11.8802 17.79C12.0802 17.27 12.2002 16.54 12.2402 15.6C12.3002 14.64 12.3302 13.43 12.3302 11.97C12.3302 10.51 12.3002 9.31004 12.2402 8.37004C12.2002 7.43004 12.0702 6.70004 11.8502 6.18004C11.6502 5.64004 11.3302 5.26004 10.8902 5.04004C10.4702 4.80004 9.90023 4.66004 9.18024 4.62004C8.46024 4.56004 7.55023 4.53004 6.45023 4.53004H3.39023V19.41ZM20.1766 22.29V3.8147e-05H23.3566V8.88004H23.5666C23.8066 8.42004 24.1266 8.04004 24.5266 7.74004C24.9266 7.42004 25.4266 7.18004 26.0266 7.02004C26.6466 6.86004 27.3966 6.78004 28.2766 6.78004C29.3566 6.78004 30.2266 6.90004 30.8866 7.14004C31.5666 7.38004 32.0766 7.75004 32.4166 8.25004C32.7566 8.75004 32.9866 9.37004 33.1066 10.11C33.2466 10.85 33.3166 11.72 33.3166 12.72V22.29H30.1066V13.98C30.1066 12.98 30.0666 12.19 29.9866 11.61C29.9266 11.01 29.7866 10.57 29.5666 10.29C29.3466 9.99004 29.0166 9.80004 28.5766 9.72004C28.1566 9.64004 27.5866 9.60004 26.8666 9.60004C26.0666 9.60004 25.4266 9.70004 24.9466 9.90004C24.4866 10.1 24.1366 10.4 23.8966 10.8C23.6766 11.2 23.5266 11.7 23.4466 12.3C23.3866 12.9 23.3566 13.6 23.3566 14.4V22.29H20.1766ZM41.9477 22.53C40.9077 22.53 40.0277 22.39 39.3077 22.11C38.6077 21.83 38.0777 21.37 37.7177 20.73C37.3577 20.07 37.1777 19.18 37.1777 18.06C37.1777 16.88 37.3177 15.95 37.5977 15.27C37.8777 14.57 38.3577 14.07 39.0377 13.77C39.7177 13.47 40.6777 13.32 41.9177 13.32C42.1177 13.32 42.4077 13.33 42.7877 13.35C43.1877 13.35 43.6377 13.36 44.1377 13.38C44.6577 13.38 45.1677 13.39 45.6677 13.41C46.1877 13.41 46.6577 13.42 47.0777 13.44V12.72C47.0777 11.94 47.0277 11.33 46.9277 10.89C46.8277 10.45 46.6177 10.13 46.2977 9.93004C45.9977 9.71004 45.5577 9.57004 44.9777 9.51004C44.3977 9.45004 43.6477 9.42004 42.7277 9.42004C42.2877 9.42004 41.7677 9.44004 41.1677 9.48004C40.5877 9.50004 40.0177 9.53004 39.4577 9.57004C38.8977 9.61004 38.4677 9.66004 38.1677 9.72004V7.20004C38.9877 7.04004 39.8877 6.93004 40.8677 6.87004C41.8477 6.79004 42.8277 6.75004 43.8077 6.75004C44.9477 6.75004 45.8977 6.82004 46.6577 6.96004C47.4377 7.10004 48.0677 7.32004 48.5477 7.62004C49.0277 7.92004 49.3877 8.31004 49.6277 8.79004C49.8677 9.27004 50.0377 9.85004 50.1377 10.53C50.2377 11.19 50.2877 11.95 50.2877 12.81V22.29H47.3477L47.2277 20.31H47.0477C46.7077 20.95 46.2477 21.44 45.6677 21.78C45.1077 22.1 44.4977 22.3 43.8377 22.38C43.1777 22.48 42.5477 22.53 41.9477 22.53ZM43.3577 19.95C43.8577 19.95 44.3077 19.92 44.7077 19.86C45.1277 19.78 45.4877 19.66 45.7877 19.5C46.1077 19.32 46.3577 19.08 46.5377 18.78C46.7177 18.44 46.8477 18.05 46.9277 17.61C47.0277 17.17 47.0777 16.65 47.0777 16.05V15.51H42.6977C42.0377 15.51 41.5277 15.56 41.1677 15.66C40.8277 15.76 40.5977 15.97 40.4777 16.29C40.3577 16.61 40.2977 17.1 40.2977 17.76C40.2977 18.38 40.3677 18.85 40.5077 19.17C40.6477 19.47 40.9377 19.68 41.3777 19.8C41.8377 19.9 42.4977 19.95 43.3577 19.95ZM56.2734 22.29V9.66004H53.2134V6.99004H56.2734V2.55004H59.4534V6.99004H63.0234V9.66004H59.4534V22.29H56.2734ZM71.1241 22.53C70.0641 22.53 69.1941 22.41 68.5141 22.17C67.8541 21.91 67.3441 21.53 66.9841 21.03C66.6441 20.53 66.4141 19.91 66.2941 19.17C66.1741 18.43 66.1141 17.56 66.1141 16.56V6.99004H69.2941V15.3C69.2941 16.3 69.3241 17.1 69.3841 17.7C69.4641 18.28 69.6141 18.72 69.8341 19.02C70.0541 19.3 70.3741 19.48 70.7941 19.56C71.2341 19.64 71.8141 19.68 72.5341 19.68C73.3341 19.68 73.9741 19.58 74.4541 19.38C74.9341 19.18 75.2841 18.88 75.5041 18.48C75.7441 18.08 75.8941 17.58 75.9541 16.98C76.0141 16.38 76.0441 15.68 76.0441 14.88V6.99004H79.2541V22.29H76.3141L76.1941 20.25H75.9841C75.7641 20.73 75.4441 21.14 75.0241 21.48C74.6241 21.82 74.1041 22.08 73.4641 22.26C72.8241 22.44 72.0441 22.53 71.1241 22.53Z" fill="#4B0081"/>
<path d="M84.3752 22.29V1.65004H88.9952L95.0552 16.65H95.2052L101.265 1.65004H105.885V22.29H102.615V6.90004H102.495L96.2552 22.29H93.8552L87.6752 6.90004H87.5552V22.29H84.3752ZM110.966 3.15004V3.8147e-05H114.296V3.15004H110.966ZM111.026 22.29V6.99004H114.206V22.29H111.026ZM118.936 22.29V6.99004H121.876L121.966 9.03004H122.206C122.446 8.53004 122.766 8.12004 123.166 7.80004C123.566 7.46004 124.086 7.20004 124.726 7.02004C125.366 6.84004 126.146 6.75004 127.066 6.75004C128.146 6.75004 129.016 6.88004 129.676 7.14004C130.336 7.38004 130.836 7.75004 131.176 8.25004C131.516 8.75004 131.746 9.37004 131.866 10.11C132.006 10.85 132.076 11.72 132.076 12.72V22.29H128.866V13.98C128.866 12.98 128.826 12.19 128.746 11.61C128.686 11.01 128.546 10.57 128.326 10.29C128.106 9.99004 127.776 9.80004 127.336 9.72004C126.916 9.64004 126.346 9.60004 125.626 9.60004C124.826 9.60004 124.186 9.70004 123.706 9.90004C123.246 10.1 122.896 10.4 122.656 10.8C122.436 11.2 122.286 11.7 122.206 12.3C122.146 12.9 122.116 13.6 122.116 14.4V22.29H118.936ZM141.668 22.53C140.648 22.53 139.788 22.41 139.088 22.17C138.388 21.91 137.828 21.49 137.408 20.91C136.988 20.31 136.678 19.5 136.478 18.48C136.298 17.46 136.208 16.19 136.208 14.67C136.208 13.13 136.298 11.85 136.478 10.83C136.678 9.81004 136.978 9.01004 137.378 8.43004C137.798 7.83004 138.348 7.40004 139.028 7.14004C139.708 6.88004 140.548 6.75004 141.548 6.75004C142.288 6.75004 142.958 6.81004 143.558 6.93004C144.158 7.05004 144.688 7.26004 145.148 7.56004C145.628 7.84004 146.008 8.25004 146.288 8.79004H146.498V3.8147e-05H149.678V22.29H146.738L146.618 20.28H146.438C146.138 20.92 145.728 21.4 145.208 21.72C144.708 22.04 144.148 22.25 143.528 22.35C142.908 22.47 142.288 22.53 141.668 22.53ZM142.958 19.71C143.838 19.71 144.518 19.6 144.998 19.38C145.498 19.14 145.848 18.77 146.048 18.27C146.248 17.81 146.368 17.28 146.408 16.68C146.468 16.08 146.498 15.38 146.498 14.58C146.498 13.82 146.468 13.16 146.408 12.6C146.368 12.02 146.258 11.53 146.078 11.13C145.858 10.59 145.498 10.2 144.998 9.96004C144.518 9.72004 143.838 9.60004 142.958 9.60004C142.158 9.60004 141.518 9.66004 141.038 9.78004C140.578 9.88004 140.228 10.1 139.988 10.44C139.768 10.76 139.618 11.26 139.538 11.94C139.458 12.6 139.418 13.5 139.418 14.64C139.418 15.78 139.458 16.69 139.538 17.37C139.618 18.03 139.778 18.53 140.018 18.87C140.258 19.21 140.608 19.44 141.068 19.56C141.548 19.66 142.178 19.71 142.958 19.71Z" fill="#6FB018"/>
</svg>
