<svg width="166" height="23" viewBox="0 0 166 23" fill="none" xmlns="http://www.w3.org/2000/svg">
<path d="M0.000234604 22.29V1.65004H6.75023C8.49023 1.65004 9.91023 1.74004 11.0102 1.92004C12.1302 2.08004 13.0102 2.38004 13.6502 2.82004C14.2902 3.26004 14.7502 3.87004 15.0302 4.65004C15.3302 5.43004 15.5202 6.42004 15.6002 7.62004C15.6802 8.82004 15.7202 10.27 15.7202 11.97C15.7202 13.67 15.6802 15.12 15.6002 16.32C15.5202 17.52 15.3302 18.51 15.0302 19.29C14.7502 20.07 14.2902 20.68 13.6502 21.12C13.0102 21.56 12.1302 21.87 11.0102 22.05C9.91023 22.21 8.49023 22.29 6.75023 22.29H0.000234604ZM3.39023 19.41H6.45023C7.57023 19.41 8.49023 19.39 9.21023 19.35C9.95023 19.29 10.5302 19.15 10.9502 18.93C11.3702 18.69 11.6802 18.31 11.8802 17.79C12.0802 17.27 12.2002 16.54 12.2402 15.6C12.3002 14.64 12.3302 13.43 12.3302 11.97C12.3302 10.51 12.3002 9.31004 12.2402 8.37004C12.2002 7.43004 12.0702 6.70004 11.8502 6.18004C11.6502 5.64004 11.3302 5.26004 10.8902 5.04004C10.4702 4.80004 9.90023 4.66004 9.18024 4.62004C8.46024 4.56004 7.55023 4.53004 6.45023 4.53004H3.39023V19.41ZM20.1766 22.29V3.8147e-05H23.3566V8.88004H23.5666C23.8066 8.42004 24.1266 8.04004 24.5266 7.74004C24.9266 7.42004 25.4266 7.18004 26.0266 7.02004C26.6466 6.86004 27.3966 6.78004 28.2766 6.78004C29.3566 6.78004 30.2266 6.90004 30.8866 7.14004C31.5666 7.38004 32.0766 7.75004 32.4166 8.25004C32.7566 8.75004 32.9866 9.37004 33.1066 10.11C33.2466 10.85 33.3166 11.72 33.3166 12.72V22.29H30.1066V13.98C30.1066 12.98 30.0666 12.19 29.9866 11.61C29.9266 11.01 29.7866 10.57 29.5666 10.29C29.3466 9.99004 29.0166 9.80004 28.5766 9.72004C28.1566 9.64004 27.5866 9.60004 26.8666 9.60004C26.0666 9.60004 25.4266 9.70004 24.9466 9.90004C24.4866 10.1 24.1366 10.4 23.8966 10.8C23.6766 11.2 23.5266 11.7 23.4466 12.3C23.3866 12.9 23.3566 13.6 23.3566 14.4V22.29H20.1766ZM41.9477 22.53C40.9077 22.53 40.0277 22.39 39.3077 22.11C38.6077 21.83 38.0777 21.37 37.7177 20.73C37.3577 20.07 37.1777 19.18 37.1777 18.06C37.1777 16.88 37.3177 15.95 37.5977 15.27C37.8777 14.57 38.3577 14.07 39.0377 13.77C39.7177 13.47 40.6777 13.32 41.9177 13.32C42.1177 13.32 42.4077 13.33 42.7877 13.35C43.1877 13.35 43.6377 13.36 44.1377 13.38C44.6577 13.38 45.1677 13.39 45.6677 13.41C46.1877 13.41 46.6577 13.42 47.0777 13.44V12.72C47.0777 11.94 47.0277 11.33 46.9277 10.89C46.8277 10.45 46.6177 10.13 46.2977 9.93004C45.9977 9.71004 45.5577 9.57004 44.9777 9.51004C44.3977 9.45004 43.6477 9.42004 42.7277 9.42004C42.2877 9.42004 41.7677 9.44004 41.1677 9.48004C40.5877 9.50004 40.0177 9.53004 39.4577 9.57004C38.8977 9.61004 38.4677 9.66004 38.1677 9.72004V7.20004C38.9877 7.04004 39.8877 6.93004 40.8677 6.87004C41.8477 6.79004 42.8277 6.75004 43.8077 6.75004C44.9477 6.75004 45.8977 6.82004 46.6577 6.96004C47.4377 7.10004 48.0677 7.32004 48.5477 7.62004C49.0277 7.92004 49.3877 8.31004 49.6277 8.79004C49.8677 9.27004 50.0377 9.85004 50.1377 10.53C50.2377 11.19 50.2877 11.95 50.2877 12.81V22.29H47.3477L47.2277 20.31H47.0477C46.7077 20.95 46.2477 21.44 45.6677 21.78C45.1077 22.1 44.4977 22.3 43.8377 22.38C43.1777 22.48 42.5477 22.53 41.9477 22.53ZM43.3577 19.95C43.8577 19.95 44.3077 19.92 44.7077 19.86C45.1277 19.78 45.4877 19.66 45.7877 19.5C46.1077 19.32 46.3577 19.08 46.5377 18.78C46.7177 18.44 46.8477 18.05 46.9277 17.61C47.0277 17.17 47.0777 16.65 47.0777 16.05V15.51H42.6977C42.0377 15.51 41.5277 15.56 41.1677 15.66C40.8277 15.76 40.5977 15.97 40.4777 16.29C40.3577 16.61 40.2977 17.1 40.2977 17.76C40.2977 18.38 40.3677 18.85 40.5077 19.17C40.6477 19.47 40.9377 19.68 41.3777 19.8C41.8377 19.9 42.4977 19.95 43.3577 19.95ZM56.2734 22.29V9.66004H53.2134V6.99004H56.2734V2.55004H59.4534V6.99004H63.0234V9.66004H59.4534V22.29H56.2734ZM71.1241 22.53C70.0641 22.53 69.1941 22.41 68.5141 22.17C67.8541 21.91 67.3441 21.53 66.9841 21.03C66.6441 20.53 66.4141 19.91 66.2941 19.17C66.1741 18.43 66.1141 17.56 66.1141 16.56V6.99004H69.2941V15.3C69.2941 16.3 69.3241 17.1 69.3841 17.7C69.4641 18.28 69.6141 18.72 69.8341 19.02C70.0541 19.3 70.3741 19.48 70.7941 19.56C71.2341 19.64 71.8141 19.68 72.5341 19.68C73.3341 19.68 73.9741 19.58 74.4541 19.38C74.9341 19.18 75.2841 18.88 75.5041 18.48C75.7441 18.08 75.8941 17.58 75.9541 16.98C76.0141 16.38 76.0441 15.68 76.0441 14.88V6.99004H79.2541V22.29H76.3141L76.1941 20.25H75.9841C75.7641 20.73 75.4441 21.14 75.0241 21.48C74.6241 21.82 74.1041 22.08 73.4641 22.26C72.8241 22.44 72.0441 22.53 71.1241 22.53Z" fill="#4B0081"/>
<path d="M84.3752 22.29V1.65004H88.9952L95.0552 16.65H95.2052L101.265 1.65004H105.885V22.29H102.615V6.90004H102.495L96.2552 22.29H93.8552L87.6752 6.90004H87.5552V22.29H84.3752ZM114.926 22.53C113.886 22.53 113.006 22.39 112.286 22.11C111.586 21.83 111.056 21.37 110.696 20.73C110.336 20.07 110.156 19.18 110.156 18.06C110.156 16.88 110.296 15.95 110.576 15.27C110.856 14.57 111.336 14.07 112.016 13.77C112.696 13.47 113.656 13.32 114.896 13.32C115.096 13.32 115.386 13.33 115.766 13.35C116.166 13.35 116.616 13.36 117.116 13.38C117.636 13.38 118.146 13.39 118.646 13.41C119.166 13.41 119.636 13.42 120.056 13.44V12.72C120.056 11.94 120.006 11.33 119.906 10.89C119.806 10.45 119.596 10.13 119.276 9.93004C118.976 9.71004 118.536 9.57004 117.956 9.51004C117.376 9.45004 116.626 9.42004 115.706 9.42004C115.266 9.42004 114.746 9.44004 114.146 9.48004C113.566 9.50004 112.996 9.53004 112.436 9.57004C111.876 9.61004 111.446 9.66004 111.146 9.72004V7.20004C111.966 7.04004 112.866 6.93004 113.846 6.87004C114.826 6.79004 115.806 6.75004 116.786 6.75004C117.926 6.75004 118.876 6.82004 119.636 6.96004C120.416 7.10004 121.046 7.32004 121.526 7.62004C122.006 7.92004 122.366 8.31004 122.606 8.79004C122.846 9.27004 123.016 9.85004 123.116 10.53C123.216 11.19 123.266 11.95 123.266 12.81V22.29H120.326L120.206 20.31H120.026C119.686 20.95 119.226 21.44 118.646 21.78C118.086 22.1 117.476 22.3 116.816 22.38C116.156 22.48 115.526 22.53 114.926 22.53ZM116.336 19.95C116.836 19.95 117.286 19.92 117.686 19.86C118.106 19.78 118.466 19.66 118.766 19.5C119.086 19.32 119.336 19.08 119.516 18.78C119.696 18.44 119.826 18.05 119.906 17.61C120.006 17.17 120.056 16.65 120.056 16.05V15.51H115.676C115.016 15.51 114.506 15.56 114.146 15.66C113.806 15.76 113.576 15.97 113.456 16.29C113.336 16.61 113.276 17.1 113.276 17.76C113.276 18.38 113.346 18.85 113.486 19.17C113.626 19.47 113.916 19.68 114.356 19.8C114.816 19.9 115.476 19.95 116.336 19.95ZM129.252 22.29V9.66004H126.192V6.99004H129.252V2.55004H132.432V6.99004H136.002V9.66004H132.432V22.29H129.252ZM144.676 22.53C143.496 22.53 142.516 22.43 141.736 22.23C140.976 22.01 140.366 21.7 139.906 21.3C139.446 20.88 139.106 20.36 138.886 19.74C138.666 19.1 138.516 18.36 138.436 17.52C138.376 16.66 138.346 15.69 138.346 14.61C138.346 13.55 138.386 12.6 138.466 11.76C138.546 10.92 138.706 10.19 138.946 9.57004C139.206 8.93004 139.566 8.41004 140.026 8.01004C140.486 7.59004 141.086 7.28004 141.826 7.08004C142.566 6.86004 143.496 6.75004 144.616 6.75004C145.336 6.75004 146.086 6.79004 146.866 6.87004C147.666 6.95004 148.326 7.05004 148.846 7.17004V9.69004C148.406 9.61004 147.856 9.55004 147.196 9.51004C146.556 9.45004 145.966 9.42004 145.426 9.42004C144.566 9.42004 143.876 9.49004 143.356 9.63004C142.856 9.77004 142.476 10.03 142.216 10.41C141.956 10.79 141.776 11.32 141.676 12C141.596 12.68 141.556 13.56 141.556 14.64C141.556 15.74 141.596 16.64 141.676 17.34C141.776 18.04 141.956 18.57 142.216 18.93C142.496 19.29 142.896 19.54 143.416 19.68C143.936 19.8 144.626 19.86 145.486 19.86C145.986 19.86 146.546 19.84 147.166 19.8C147.806 19.74 148.416 19.67 148.996 19.59V22.11C148.456 22.23 147.786 22.33 146.986 22.41C146.186 22.49 145.416 22.53 144.676 22.53ZM152.774 22.29V3.8147e-05H155.954V8.88004H156.164C156.404 8.42004 156.724 8.04004 157.124 7.74004C157.524 7.42004 158.024 7.18004 158.624 7.02004C159.244 6.86004 159.994 6.78004 160.874 6.78004C161.954 6.78004 162.824 6.90004 163.484 7.14004C164.164 7.38004 164.674 7.75004 165.014 8.25004C165.354 8.75004 165.584 9.37004 165.704 10.11C165.844 10.85 165.914 11.72 165.914 12.72V22.29H162.704V13.98C162.704 12.98 162.664 12.19 162.584 11.61C162.524 11.01 162.384 10.57 162.164 10.29C161.944 9.99004 161.614 9.80004 161.174 9.72004C160.754 9.64004 160.184 9.60004 159.464 9.60004C158.664 9.60004 158.024 9.70004 157.544 9.90004C157.084 10.1 156.734 10.4 156.494 10.8C156.274 11.2 156.124 11.7 156.044 12.3C155.984 12.9 155.954 13.6 155.954 14.4V22.29H152.774Z" fill="#6FB018"/>
</svg>
