<svg width="154" height="23" viewBox="0 0 154 23" fill="none" xmlns="http://www.w3.org/2000/svg">
<path d="M0.000234604 22.29V1.65004H6.75023C8.49023 1.65004 9.91023 1.74004 11.0102 1.92004C12.1302 2.08004 13.0102 2.38004 13.6502 2.82004C14.2902 3.26004 14.7502 3.87004 15.0302 4.65004C15.3302 5.43004 15.5202 6.42004 15.6002 7.62004C15.6802 8.82004 15.7202 10.27 15.7202 11.97C15.7202 13.67 15.6802 15.12 15.6002 16.32C15.5202 17.52 15.3302 18.51 15.0302 19.29C14.7502 20.07 14.2902 20.68 13.6502 21.12C13.0102 21.56 12.1302 21.87 11.0102 22.05C9.91023 22.21 8.49023 22.29 6.75023 22.29H0.000234604ZM3.39023 19.41H6.45023C7.57023 19.41 8.49023 19.39 9.21023 19.35C9.95023 19.29 10.5302 19.15 10.9502 18.93C11.3702 18.69 11.6802 18.31 11.8802 17.79C12.0802 17.27 12.2002 16.54 12.2402 15.6C12.3002 14.64 12.3302 13.43 12.3302 11.97C12.3302 10.51 12.3002 9.31004 12.2402 8.37004C12.2002 7.43004 12.0702 6.70004 11.8502 6.18004C11.6502 5.64004 11.3302 5.26004 10.8902 5.04004C10.4702 4.80004 9.90023 4.66004 9.18024 4.62004C8.46024 4.56004 7.55023 4.53004 6.45023 4.53004H3.39023V19.41ZM20.1766 22.29V3.8147e-05H23.3566V8.88004H23.5666C23.8066 8.42004 24.1266 8.04004 24.5266 7.74004C24.9266 7.42004 25.4266 7.18004 26.0266 7.02004C26.6466 6.86004 27.3966 6.78004 28.2766 6.78004C29.3566 6.78004 30.2266 6.90004 30.8866 7.14004C31.5666 7.38004 32.0766 7.75004 32.4166 8.25004C32.7566 8.75004 32.9866 9.37004 33.1066 10.11C33.2466 10.85 33.3166 11.72 33.3166 12.72V22.29H30.1066V13.98C30.1066 12.98 30.0666 12.19 29.9866 11.61C29.9266 11.01 29.7866 10.57 29.5666 10.29C29.3466 9.99004 29.0166 9.80004 28.5766 9.72004C28.1566 9.64004 27.5866 9.60004 26.8666 9.60004C26.0666 9.60004 25.4266 9.70004 24.9466 9.90004C24.4866 10.1 24.1366 10.4 23.8966 10.8C23.6766 11.2 23.5266 11.7 23.4466 12.3C23.3866 12.9 23.3566 13.6 23.3566 14.4V22.29H20.1766ZM41.9477 22.53C40.9077 22.53 40.0277 22.39 39.3077 22.11C38.6077 21.83 38.0777 21.37 37.7177 20.73C37.3577 20.07 37.1777 19.18 37.1777 18.06C37.1777 16.88 37.3177 15.95 37.5977 15.27C37.8777 14.57 38.3577 14.07 39.0377 13.77C39.7177 13.47 40.6777 13.32 41.9177 13.32C42.1177 13.32 42.4077 13.33 42.7877 13.35C43.1877 13.35 43.6377 13.36 44.1377 13.38C44.6577 13.38 45.1677 13.39 45.6677 13.41C46.1877 13.41 46.6577 13.42 47.0777 13.44V12.72C47.0777 11.94 47.0277 11.33 46.9277 10.89C46.8277 10.45 46.6177 10.13 46.2977 9.93004C45.9977 9.71004 45.5577 9.57004 44.9777 9.51004C44.3977 9.45004 43.6477 9.42004 42.7277 9.42004C42.2877 9.42004 41.7677 9.44004 41.1677 9.48004C40.5877 9.50004 40.0177 9.53004 39.4577 9.57004C38.8977 9.61004 38.4677 9.66004 38.1677 9.72004V7.20004C38.9877 7.04004 39.8877 6.93004 40.8677 6.87004C41.8477 6.79004 42.8277 6.75004 43.8077 6.75004C44.9477 6.75004 45.8977 6.82004 46.6577 6.96004C47.4377 7.10004 48.0677 7.32004 48.5477 7.62004C49.0277 7.92004 49.3877 8.31004 49.6277 8.79004C49.8677 9.27004 50.0377 9.85004 50.1377 10.53C50.2377 11.19 50.2877 11.95 50.2877 12.81V22.29H47.3477L47.2277 20.31H47.0477C46.7077 20.95 46.2477 21.44 45.6677 21.78C45.1077 22.1 44.4977 22.3 43.8377 22.38C43.1777 22.48 42.5477 22.53 41.9477 22.53ZM43.3577 19.95C43.8577 19.95 44.3077 19.92 44.7077 19.86C45.1277 19.78 45.4877 19.66 45.7877 19.5C46.1077 19.32 46.3577 19.08 46.5377 18.78C46.7177 18.44 46.8477 18.05 46.9277 17.61C47.0277 17.17 47.0777 16.65 47.0777 16.05V15.51H42.6977C42.0377 15.51 41.5277 15.56 41.1677 15.66C40.8277 15.76 40.5977 15.97 40.4777 16.29C40.3577 16.61 40.2977 17.1 40.2977 17.76C40.2977 18.38 40.3677 18.85 40.5077 19.17C40.6477 19.47 40.9377 19.68 41.3777 19.8C41.8377 19.9 42.4977 19.95 43.3577 19.95ZM56.2734 22.29V9.66004H53.2134V6.99004H56.2734V2.55004H59.4534V6.99004H63.0234V9.66004H59.4534V22.29H56.2734ZM71.1241 22.53C70.0641 22.53 69.1941 22.41 68.5141 22.17C67.8541 21.91 67.3441 21.53 66.9841 21.03C66.6441 20.53 66.4141 19.91 66.2941 19.17C66.1741 18.43 66.1141 17.56 66.1141 16.56V6.99004H69.2941V15.3C69.2941 16.3 69.3241 17.1 69.3841 17.7C69.4641 18.28 69.6141 18.72 69.8341 19.02C70.0541 19.3 70.3741 19.48 70.7941 19.56C71.2341 19.64 71.8141 19.68 72.5341 19.68C73.3341 19.68 73.9741 19.58 74.4541 19.38C74.9341 19.18 75.2841 18.88 75.5041 18.48C75.7441 18.08 75.8941 17.58 75.9541 16.98C76.0141 16.38 76.0441 15.68 76.0441 14.88V6.99004H79.2541V22.29H76.3141L76.1941 20.25H75.9841C75.7641 20.73 75.4441 21.14 75.0241 21.48C74.6241 21.82 74.1041 22.08 73.4641 22.26C72.8241 22.44 72.0441 22.53 71.1241 22.53Z" fill="#4B0081"/>
<path d="M89.3252 22.29L82.3052 1.65004H85.8152L91.5452 18.57H91.6952L97.3652 1.65004H100.785L93.7652 22.29H89.3252ZM106.547 22.53C105.507 22.53 104.627 22.39 103.907 22.11C103.207 21.83 102.677 21.37 102.317 20.73C101.957 20.07 101.777 19.18 101.777 18.06C101.777 16.88 101.917 15.95 102.197 15.27C102.477 14.57 102.957 14.07 103.637 13.77C104.317 13.47 105.277 13.32 106.517 13.32C106.717 13.32 107.007 13.33 107.387 13.35C107.787 13.35 108.237 13.36 108.737 13.38C109.257 13.38 109.767 13.39 110.267 13.41C110.787 13.41 111.257 13.42 111.677 13.44V12.72C111.677 11.94 111.627 11.33 111.527 10.89C111.427 10.45 111.217 10.13 110.897 9.93004C110.597 9.71004 110.157 9.57004 109.577 9.51004C108.997 9.45004 108.247 9.42004 107.327 9.42004C106.887 9.42004 106.367 9.44004 105.767 9.48004C105.187 9.50004 104.617 9.53004 104.057 9.57004C103.497 9.61004 103.067 9.66004 102.767 9.72004V7.20004C103.587 7.04004 104.487 6.93004 105.467 6.87004C106.447 6.79004 107.427 6.75004 108.407 6.75004C109.547 6.75004 110.497 6.82004 111.257 6.96004C112.037 7.10004 112.667 7.32004 113.147 7.62004C113.627 7.92004 113.987 8.31004 114.227 8.79004C114.467 9.27004 114.637 9.85004 114.737 10.53C114.837 11.19 114.887 11.95 114.887 12.81V22.29H111.947L111.827 20.31H111.647C111.307 20.95 110.847 21.44 110.267 21.78C109.707 22.1 109.097 22.3 108.437 22.38C107.777 22.48 107.147 22.53 106.547 22.53ZM107.957 19.95C108.457 19.95 108.907 19.92 109.307 19.86C109.727 19.78 110.087 19.66 110.387 19.5C110.707 19.32 110.957 19.08 111.137 18.78C111.317 18.44 111.447 18.05 111.527 17.61C111.627 17.17 111.677 16.65 111.677 16.05V15.51H107.297C106.637 15.51 106.127 15.56 105.767 15.66C105.427 15.76 105.197 15.97 105.077 16.29C104.957 16.61 104.897 17.1 104.897 17.76C104.897 18.38 104.967 18.85 105.107 19.17C105.247 19.47 105.537 19.68 105.977 19.8C106.437 19.9 107.097 19.95 107.957 19.95ZM124.65 22.53C123.59 22.53 122.72 22.41 122.04 22.17C121.38 21.91 120.87 21.53 120.51 21.03C120.17 20.53 119.94 19.91 119.82 19.17C119.7 18.43 119.64 17.56 119.64 16.56V6.99004H122.82V15.3C122.82 16.3 122.85 17.1 122.91 17.7C122.99 18.28 123.14 18.72 123.36 19.02C123.58 19.3 123.9 19.48 124.32 19.56C124.76 19.64 125.34 19.68 126.06 19.68C126.86 19.68 127.5 19.58 127.98 19.38C128.46 19.18 128.81 18.88 129.03 18.48C129.27 18.08 129.42 17.58 129.48 16.98C129.54 16.38 129.57 15.68 129.57 14.88V6.99004H132.78V22.29H129.84L129.72 20.25H129.51C129.29 20.73 128.97 21.14 128.55 21.48C128.15 21.82 127.63 22.08 126.99 22.26C126.35 22.44 125.57 22.53 124.65 22.53ZM137.511 22.29V3.8147e-05H140.691V22.29H137.511ZM146.801 22.29V9.66004H143.741V6.99004H146.801V2.55004H149.981V6.99004H153.551V9.66004H149.981V22.29H146.801Z" fill="#6FB018"/>
</svg>
