<svg width="184" height="29" viewBox="0 0 184 29" fill="none" xmlns="http://www.w3.org/2000/svg">
<path d="M0.000234604 22.29V1.65004H6.75023C8.49023 1.65004 9.91023 1.74004 11.0102 1.92004C12.1302 2.08004 13.0102 2.38004 13.6502 2.82004C14.2902 3.26004 14.7502 3.87004 15.0302 4.65004C15.3302 5.43004 15.5202 6.42004 15.6002 7.62004C15.6802 8.82004 15.7202 10.27 15.7202 11.97C15.7202 13.67 15.6802 15.12 15.6002 16.32C15.5202 17.52 15.3302 18.51 15.0302 19.29C14.7502 20.07 14.2902 20.68 13.6502 21.12C13.0102 21.56 12.1302 21.87 11.0102 22.05C9.91023 22.21 8.49023 22.29 6.75023 22.29H0.000234604ZM3.39023 19.41H6.45023C7.57023 19.41 8.49023 19.39 9.21023 19.35C9.95023 19.29 10.5302 19.15 10.9502 18.93C11.3702 18.69 11.6802 18.31 11.8802 17.79C12.0802 17.27 12.2002 16.54 12.2402 15.6C12.3002 14.64 12.3302 13.43 12.3302 11.97C12.3302 10.51 12.3002 9.31004 12.2402 8.37004C12.2002 7.43004 12.0702 6.70004 11.8502 6.18004C11.6502 5.64004 11.3302 5.26004 10.8902 5.04004C10.4702 4.80004 9.90023 4.66004 9.18024 4.62004C8.46024 4.56004 7.55023 4.53004 6.45023 4.53004H3.39023V19.41ZM20.1766 22.29V3.8147e-05H23.3566V8.88004H23.5666C23.8066 8.42004 24.1266 8.04004 24.5266 7.74004C24.9266 7.42004 25.4266 7.18004 26.0266 7.02004C26.6466 6.86004 27.3966 6.78004 28.2766 6.78004C29.3566 6.78004 30.2266 6.90004 30.8866 7.14004C31.5666 7.38004 32.0766 7.75004 32.4166 8.25004C32.7566 8.75004 32.9866 9.37004 33.1066 10.11C33.2466 10.85 33.3166 11.72 33.3166 12.72V22.29H30.1066V13.98C30.1066 12.98 30.0666 12.19 29.9866 11.61C29.9266 11.01 29.7866 10.57 29.5666 10.29C29.3466 9.99004 29.0166 9.80004 28.5766 9.72004C28.1566 9.64004 27.5866 9.60004 26.8666 9.60004C26.0666 9.60004 25.4266 9.70004 24.9466 9.90004C24.4866 10.1 24.1366 10.4 23.8966 10.8C23.6766 11.2 23.5266 11.7 23.4466 12.3C23.3866 12.9 23.3566 13.6 23.3566 14.4V22.29H20.1766ZM41.9477 22.53C40.9077 22.53 40.0277 22.39 39.3077 22.11C38.6077 21.83 38.0777 21.37 37.7177 20.73C37.3577 20.07 37.1777 19.18 37.1777 18.06C37.1777 16.88 37.3177 15.95 37.5977 15.27C37.8777 14.57 38.3577 14.07 39.0377 13.77C39.7177 13.47 40.6777 13.32 41.9177 13.32C42.1177 13.32 42.4077 13.33 42.7877 13.35C43.1877 13.35 43.6377 13.36 44.1377 13.38C44.6577 13.38 45.1677 13.39 45.6677 13.41C46.1877 13.41 46.6577 13.42 47.0777 13.44V12.72C47.0777 11.94 47.0277 11.33 46.9277 10.89C46.8277 10.45 46.6177 10.13 46.2977 9.93004C45.9977 9.71004 45.5577 9.57004 44.9777 9.51004C44.3977 9.45004 43.6477 9.42004 42.7277 9.42004C42.2877 9.42004 41.7677 9.44004 41.1677 9.48004C40.5877 9.50004 40.0177 9.53004 39.4577 9.57004C38.8977 9.61004 38.4677 9.66004 38.1677 9.72004V7.20004C38.9877 7.04004 39.8877 6.93004 40.8677 6.87004C41.8477 6.79004 42.8277 6.75004 43.8077 6.75004C44.9477 6.75004 45.8977 6.82004 46.6577 6.96004C47.4377 7.10004 48.0677 7.32004 48.5477 7.62004C49.0277 7.92004 49.3877 8.31004 49.6277 8.79004C49.8677 9.27004 50.0377 9.85004 50.1377 10.53C50.2377 11.19 50.2877 11.95 50.2877 12.81V22.29H47.3477L47.2277 20.31H47.0477C46.7077 20.95 46.2477 21.44 45.6677 21.78C45.1077 22.1 44.4977 22.3 43.8377 22.38C43.1777 22.48 42.5477 22.53 41.9477 22.53ZM43.3577 19.95C43.8577 19.95 44.3077 19.92 44.7077 19.86C45.1277 19.78 45.4877 19.66 45.7877 19.5C46.1077 19.32 46.3577 19.08 46.5377 18.78C46.7177 18.44 46.8477 18.05 46.9277 17.61C47.0277 17.17 47.0777 16.65 47.0777 16.05V15.51H42.6977C42.0377 15.51 41.5277 15.56 41.1677 15.66C40.8277 15.76 40.5977 15.97 40.4777 16.29C40.3577 16.61 40.2977 17.1 40.2977 17.76C40.2977 18.38 40.3677 18.85 40.5077 19.17C40.6477 19.47 40.9377 19.68 41.3777 19.8C41.8377 19.9 42.4977 19.95 43.3577 19.95ZM56.2734 22.29V9.66004H53.2134V6.99004H56.2734V2.55004H59.4534V6.99004H63.0234V9.66004H59.4534V22.29H56.2734ZM71.1241 22.53C70.0641 22.53 69.1941 22.41 68.5141 22.17C67.8541 21.91 67.3441 21.53 66.9841 21.03C66.6441 20.53 66.4141 19.91 66.2941 19.17C66.1741 18.43 66.1141 17.56 66.1141 16.56V6.99004H69.2941V15.3C69.2941 16.3 69.3241 17.1 69.3841 17.7C69.4641 18.28 69.6141 18.72 69.8341 19.02C70.0541 19.3 70.3741 19.48 70.7941 19.56C71.2341 19.64 71.8141 19.68 72.5341 19.68C73.3341 19.68 73.9741 19.58 74.4541 19.38C74.9341 19.18 75.2841 18.88 75.5041 18.48C75.7441 18.08 75.8941 17.58 75.9541 16.98C76.0141 16.38 76.0441 15.68 76.0441 14.88V6.99004H79.2541V22.29H76.3141L76.1941 20.25H75.9841C75.7641 20.73 75.4441 21.14 75.0241 21.48C74.6241 21.82 74.1041 22.08 73.4641 22.26C72.8241 22.44 72.0441 22.53 71.1241 22.53Z" fill="#4B0081"/>
<path d="M92.1452 22.53C90.6652 22.53 89.4252 22.44 88.4252 22.26C87.4252 22.06 86.6052 21.73 85.9652 21.27C85.3452 20.81 84.8652 20.19 84.5252 19.41C84.2052 18.61 83.9852 17.6 83.8652 16.38C83.7452 15.16 83.6852 13.69 83.6852 11.97C83.6852 10.25 83.7452 8.78004 83.8652 7.56004C83.9852 6.34004 84.2052 5.34004 84.5252 4.56004C84.8652 3.76004 85.3452 3.13004 85.9652 2.67004C86.6052 2.21004 87.4252 1.89004 88.4252 1.71004C89.4252 1.51004 90.6652 1.41004 92.1452 1.41004C92.7252 1.41004 93.3152 1.43004 93.9152 1.47004C94.5352 1.51004 95.1252 1.57004 95.6852 1.65004C96.2452 1.71004 96.7252 1.79004 97.1252 1.89004V4.59004C96.6252 4.53004 96.1252 4.48004 95.6252 4.44004C95.1452 4.38004 94.6752 4.34004 94.2152 4.32004C93.7552 4.30004 93.3552 4.29004 93.0152 4.29004C91.9152 4.29004 91.0052 4.33004 90.2852 4.41004C89.5652 4.49004 88.9852 4.67004 88.5452 4.95004C88.1252 5.23004 87.8052 5.65004 87.5852 6.21004C87.3852 6.75004 87.2452 7.49004 87.1652 8.43004C87.1052 9.37004 87.0752 10.55 87.0752 11.97C87.0752 13.37 87.1052 14.55 87.1652 15.51C87.2452 16.45 87.3852 17.2 87.5852 17.76C87.8052 18.3 88.1252 18.71 88.5452 18.99C88.9852 19.27 89.5652 19.45 90.2852 19.53C91.0052 19.61 91.9152 19.65 93.0152 19.65C93.6752 19.65 94.3952 19.62 95.1752 19.56C95.9752 19.5 96.6652 19.43 97.2452 19.35V22.11C96.8052 22.19 96.2852 22.26 95.6852 22.32C95.1052 22.38 94.5052 22.43 93.8852 22.47C93.2852 22.51 92.7052 22.53 92.1452 22.53ZM107.423 22.53C106.143 22.53 105.073 22.45 104.213 22.29C103.373 22.13 102.703 21.88 102.203 21.54C101.723 21.18 101.363 20.7 101.123 20.1C100.903 19.5 100.753 18.75 100.673 17.85C100.613 16.95 100.583 15.87 100.583 14.61C100.583 13.37 100.613 12.3 100.673 11.4C100.753 10.5 100.903 9.75004 101.123 9.15004C101.363 8.55004 101.723 8.08004 102.203 7.74004C102.703 7.38004 103.373 7.13004 104.213 6.99004C105.073 6.83004 106.143 6.75004 107.423 6.75004C108.723 6.75004 109.793 6.83004 110.633 6.99004C111.493 7.13004 112.163 7.38004 112.643 7.74004C113.143 8.08004 113.503 8.55004 113.723 9.15004C113.963 9.75004 114.113 10.5 114.173 11.4C114.253 12.3 114.293 13.37 114.293 14.61C114.293 15.87 114.253 16.95 114.173 17.85C114.113 18.75 113.963 19.5 113.723 20.1C113.503 20.7 113.143 21.18 112.643 21.54C112.163 21.88 111.493 22.13 110.633 22.29C109.793 22.45 108.723 22.53 107.423 22.53ZM107.423 19.86C108.343 19.86 109.053 19.8 109.553 19.68C110.053 19.56 110.403 19.32 110.603 18.96C110.823 18.6 110.953 18.07 110.993 17.37C111.053 16.67 111.083 15.75 111.083 14.61C111.083 13.47 111.053 12.56 110.993 11.88C110.953 11.18 110.823 10.65 110.603 10.29C110.403 9.93004 110.053 9.70004 109.553 9.60004C109.053 9.48004 108.343 9.42004 107.423 9.42004C106.523 9.42004 105.823 9.48004 105.323 9.60004C104.823 9.70004 104.463 9.93004 104.243 10.29C104.043 10.65 103.913 11.18 103.853 11.88C103.813 12.56 103.793 13.47 103.793 14.61C103.793 15.75 103.813 16.67 103.853 17.37C103.913 18.07 104.043 18.6 104.243 18.96C104.463 19.32 104.823 19.56 105.323 19.68C105.823 19.8 106.523 19.86 107.423 19.86ZM118.438 22.29V6.99004H121.378L121.468 9.03004H121.678C121.898 8.55004 122.198 8.14004 122.578 7.80004C122.978 7.46004 123.468 7.20004 124.048 7.02004C124.648 6.84004 125.368 6.75004 126.208 6.75004C127.488 6.75004 128.448 6.94004 129.088 7.32004C129.728 7.68004 130.178 8.25004 130.438 9.03004H130.678C130.898 8.55004 131.208 8.14004 131.608 7.80004C132.028 7.46004 132.538 7.20004 133.138 7.02004C133.758 6.84004 134.488 6.75004 135.328 6.75004C136.648 6.75004 137.638 6.97004 138.298 7.41004C138.958 7.85004 139.398 8.52004 139.618 9.42004C139.838 10.3 139.948 11.4 139.948 12.72V22.29H136.768V13.98C136.768 12.98 136.738 12.19 136.678 11.61C136.618 11.01 136.488 10.57 136.288 10.29C136.108 9.99004 135.818 9.80004 135.418 9.72004C135.038 9.64004 134.538 9.60004 133.918 9.60004C133.198 9.60004 132.628 9.70004 132.208 9.90004C131.788 10.08 131.478 10.37 131.278 10.77C131.078 11.15 130.948 11.64 130.888 12.24C130.828 12.84 130.798 13.56 130.798 14.4V22.29H127.618V13.98C127.618 12.98 127.578 12.19 127.498 11.61C127.438 11.01 127.308 10.57 127.108 10.29C126.928 9.99004 126.648 9.80004 126.268 9.72004C125.888 9.64004 125.378 9.60004 124.738 9.60004C124.038 9.60004 123.478 9.70004 123.058 9.90004C122.638 10.1 122.318 10.4 122.098 10.8C121.898 11.18 121.768 11.68 121.708 12.3C121.648 12.9 121.618 13.6 121.618 14.4V22.29H118.438ZM144.718 28.26V6.99004H147.658L147.748 9.03004H147.958C148.278 8.39004 148.688 7.91004 149.188 7.59004C149.688 7.25004 150.238 7.03004 150.838 6.93004C151.458 6.81004 152.088 6.75004 152.728 6.75004C153.748 6.75004 154.598 6.88004 155.278 7.14004C155.978 7.38004 156.538 7.80004 156.958 8.40004C157.378 8.98004 157.688 9.78004 157.888 10.8C158.088 11.82 158.188 13.09 158.188 14.61C158.188 16.15 158.088 17.43 157.888 18.45C157.708 19.47 157.408 20.28 156.988 20.88C156.588 21.46 156.048 21.88 155.368 22.14C154.688 22.4 153.838 22.53 152.818 22.53C152.098 22.53 151.438 22.47 150.838 22.35C150.238 22.23 149.708 22.03 149.248 21.75C148.788 21.45 148.408 21.03 148.108 20.49H147.898V28.26H144.718ZM151.408 19.68C152.208 19.68 152.838 19.63 153.298 19.53C153.778 19.41 154.138 19.19 154.378 18.87C154.618 18.53 154.778 18.03 154.858 17.37C154.938 16.69 154.978 15.78 154.978 14.64C154.978 13.5 154.938 12.6 154.858 11.94C154.778 11.26 154.618 10.75 154.378 10.41C154.138 10.07 153.778 9.85004 153.298 9.75004C152.838 9.63004 152.208 9.57004 151.408 9.57004C150.568 9.57004 149.908 9.69004 149.428 9.93004C148.948 10.17 148.588 10.53 148.348 11.01C148.148 11.43 148.018 11.95 147.958 12.57C147.918 13.17 147.898 13.86 147.898 14.64C147.898 15.44 147.918 16.14 147.958 16.74C148.018 17.32 148.138 17.81 148.318 18.21C148.558 18.73 148.918 19.11 149.398 19.35C149.898 19.57 150.568 19.68 151.408 19.68ZM162.325 22.29V3.8147e-05H165.505V22.29H162.325ZM176.295 28.47C175.715 28.47 175.105 28.45 174.465 28.41C173.845 28.39 173.245 28.36 172.665 28.32C172.105 28.28 171.605 28.23 171.165 28.17V25.68C171.885 25.7 172.505 25.72 173.025 25.74C173.565 25.76 174.045 25.77 174.465 25.77C174.885 25.79 175.255 25.8 175.575 25.8C176.655 25.8 177.505 25.73 178.125 25.59C178.745 25.45 179.205 25.21 179.505 24.87C179.805 24.53 179.985 24.06 180.045 23.46C180.125 22.88 180.165 22.14 180.165 21.24V20.31H179.985C179.785 20.75 179.485 21.13 179.085 21.45C178.705 21.75 178.195 21.99 177.555 22.17C176.935 22.33 176.165 22.41 175.245 22.41C174.185 22.41 173.315 22.29 172.635 22.05C171.975 21.79 171.465 21.42 171.105 20.94C170.765 20.44 170.535 19.82 170.415 19.08C170.295 18.34 170.235 17.48 170.235 16.5V6.99004H173.415V15.24C173.415 16.24 173.445 17.04 173.505 17.64C173.585 18.22 173.735 18.65 173.955 18.93C174.175 19.21 174.495 19.4 174.915 19.5C175.355 19.58 175.935 19.62 176.655 19.62C177.455 19.62 178.095 19.52 178.575 19.32C179.055 19.12 179.405 18.82 179.625 18.42C179.865 18.02 180.015 17.52 180.075 16.92C180.135 16.32 180.165 15.62 180.165 14.82V6.99004H183.375V20.49C183.375 21.91 183.295 23.12 183.135 24.12C182.995 25.14 182.685 25.97 182.205 26.61C181.745 27.25 181.045 27.72 180.105 28.02C179.165 28.32 177.895 28.47 176.295 28.47Z" fill="#6FB018"/>
</svg>
