<svg width="173" height="29" viewBox="0 0 173 29" fill="none" xmlns="http://www.w3.org/2000/svg">
<path d="M0.000234604 22.29V1.65004H6.75023C8.49023 1.65004 9.91023 1.74004 11.0102 1.92004C12.1302 2.08004 13.0102 2.38004 13.6502 2.82004C14.2902 3.26004 14.7502 3.87004 15.0302 4.65004C15.3302 5.43004 15.5202 6.42004 15.6002 7.62004C15.6802 8.82004 15.7202 10.27 15.7202 11.97C15.7202 13.67 15.6802 15.12 15.6002 16.32C15.5202 17.52 15.3302 18.51 15.0302 19.29C14.7502 20.07 14.2902 20.68 13.6502 21.12C13.0102 21.56 12.1302 21.87 11.0102 22.05C9.91023 22.21 8.49023 22.29 6.75023 22.29H0.000234604ZM3.39023 19.41H6.45023C7.57023 19.41 8.49023 19.39 9.21023 19.35C9.95023 19.29 10.5302 19.15 10.9502 18.93C11.3702 18.69 11.6802 18.31 11.8802 17.79C12.0802 17.27 12.2002 16.54 12.2402 15.6C12.3002 14.64 12.3302 13.43 12.3302 11.97C12.3302 10.51 12.3002 9.31004 12.2402 8.37004C12.2002 7.43004 12.0702 6.70004 11.8502 6.18004C11.6502 5.64004 11.3302 5.26004 10.8902 5.04004C10.4702 4.80004 9.90023 4.66004 9.18024 4.62004C8.46024 4.56004 7.55023 4.53004 6.45023 4.53004H3.39023V19.41ZM20.1766 22.29V3.8147e-05H23.3566V8.88004H23.5666C23.8066 8.42004 24.1266 8.04004 24.5266 7.74004C24.9266 7.42004 25.4266 7.18004 26.0266 7.02004C26.6466 6.86004 27.3966 6.78004 28.2766 6.78004C29.3566 6.78004 30.2266 6.90004 30.8866 7.14004C31.5666 7.38004 32.0766 7.75004 32.4166 8.25004C32.7566 8.75004 32.9866 9.37004 33.1066 10.11C33.2466 10.85 33.3166 11.72 33.3166 12.72V22.29H30.1066V13.98C30.1066 12.98 30.0666 12.19 29.9866 11.61C29.9266 11.01 29.7866 10.57 29.5666 10.29C29.3466 9.99004 29.0166 9.80004 28.5766 9.72004C28.1566 9.64004 27.5866 9.60004 26.8666 9.60004C26.0666 9.60004 25.4266 9.70004 24.9466 9.90004C24.4866 10.1 24.1366 10.4 23.8966 10.8C23.6766 11.2 23.5266 11.7 23.4466 12.3C23.3866 12.9 23.3566 13.6 23.3566 14.4V22.29H20.1766ZM41.9477 22.53C40.9077 22.53 40.0277 22.39 39.3077 22.11C38.6077 21.83 38.0777 21.37 37.7177 20.73C37.3577 20.07 37.1777 19.18 37.1777 18.06C37.1777 16.88 37.3177 15.95 37.5977 15.27C37.8777 14.57 38.3577 14.07 39.0377 13.77C39.7177 13.47 40.6777 13.32 41.9177 13.32C42.1177 13.32 42.4077 13.33 42.7877 13.35C43.1877 13.35 43.6377 13.36 44.1377 13.38C44.6577 13.38 45.1677 13.39 45.6677 13.41C46.1877 13.41 46.6577 13.42 47.0777 13.44V12.72C47.0777 11.94 47.0277 11.33 46.9277 10.89C46.8277 10.45 46.6177 10.13 46.2977 9.93004C45.9977 9.71004 45.5577 9.57004 44.9777 9.51004C44.3977 9.45004 43.6477 9.42004 42.7277 9.42004C42.2877 9.42004 41.7677 9.44004 41.1677 9.48004C40.5877 9.50004 40.0177 9.53004 39.4577 9.57004C38.8977 9.61004 38.4677 9.66004 38.1677 9.72004V7.20004C38.9877 7.04004 39.8877 6.93004 40.8677 6.87004C41.8477 6.79004 42.8277 6.75004 43.8077 6.75004C44.9477 6.75004 45.8977 6.82004 46.6577 6.96004C47.4377 7.10004 48.0677 7.32004 48.5477 7.62004C49.0277 7.92004 49.3877 8.31004 49.6277 8.79004C49.8677 9.27004 50.0377 9.85004 50.1377 10.53C50.2377 11.19 50.2877 11.95 50.2877 12.81V22.29H47.3477L47.2277 20.31H47.0477C46.7077 20.95 46.2477 21.44 45.6677 21.78C45.1077 22.1 44.4977 22.3 43.8377 22.38C43.1777 22.48 42.5477 22.53 41.9477 22.53ZM43.3577 19.95C43.8577 19.95 44.3077 19.92 44.7077 19.86C45.1277 19.78 45.4877 19.66 45.7877 19.5C46.1077 19.32 46.3577 19.08 46.5377 18.78C46.7177 18.44 46.8477 18.05 46.9277 17.61C47.0277 17.17 47.0777 16.65 47.0777 16.05V15.51H42.6977C42.0377 15.51 41.5277 15.56 41.1677 15.66C40.8277 15.76 40.5977 15.97 40.4777 16.29C40.3577 16.61 40.2977 17.1 40.2977 17.76C40.2977 18.38 40.3677 18.85 40.5077 19.17C40.6477 19.47 40.9377 19.68 41.3777 19.8C41.8377 19.9 42.4977 19.95 43.3577 19.95ZM56.2734 22.29V9.66004H53.2134V6.99004H56.2734V2.55004H59.4534V6.99004H63.0234V9.66004H59.4534V22.29H56.2734ZM71.1241 22.53C70.0641 22.53 69.1941 22.41 68.5141 22.17C67.8541 21.91 67.3441 21.53 66.9841 21.03C66.6441 20.53 66.4141 19.91 66.2941 19.17C66.1741 18.43 66.1141 17.56 66.1141 16.56V6.99004H69.2941V15.3C69.2941 16.3 69.3241 17.1 69.3841 17.7C69.4641 18.28 69.6141 18.72 69.8341 19.02C70.0541 19.3 70.3741 19.48 70.7941 19.56C71.2341 19.64 71.8141 19.68 72.5341 19.68C73.3341 19.68 73.9741 19.58 74.4541 19.38C74.9341 19.18 75.2841 18.88 75.5041 18.48C75.7441 18.08 75.8941 17.58 75.9541 16.98C76.0141 16.38 76.0441 15.68 76.0441 14.88V6.99004H79.2541V22.29H76.3141L76.1941 20.25H75.9841C75.7641 20.73 75.4441 21.14 75.0241 21.48C74.6241 21.82 74.1041 22.08 73.4641 22.26C72.8241 22.44 72.0441 22.53 71.1241 22.53Z" fill="#4B0081"/>
<path d="M91.3952 22.53C90.6552 22.53 89.8352 22.51 88.9352 22.47C88.0552 22.43 87.1852 22.37 86.3252 22.29C85.4852 22.23 84.7152 22.16 84.0152 22.08V19.29C84.7352 19.35 85.4852 19.41 86.2652 19.47C87.0652 19.53 87.8252 19.58 88.5452 19.62C89.2652 19.64 89.8852 19.65 90.4052 19.65C91.4652 19.65 92.2952 19.6 92.8952 19.5C93.4952 19.4 93.9752 19.24 94.3352 19.02C94.5752 18.86 94.7452 18.66 94.8452 18.42C94.9652 18.18 95.0352 17.9 95.0552 17.58C95.0952 17.24 95.1152 16.87 95.1152 16.47C95.1152 15.93 95.0952 15.48 95.0552 15.12C95.0152 14.76 94.9252 14.48 94.7852 14.28C94.6452 14.08 94.4252 13.94 94.1252 13.86C93.8252 13.76 93.4352 13.68 92.9552 13.62L88.0352 13.05C87.0752 12.93 86.2852 12.73 85.6652 12.45C85.0652 12.15 84.5952 11.76 84.2552 11.28C83.9352 10.8 83.7152 10.23 83.5952 9.57004C83.4752 8.91004 83.4152 8.18004 83.4152 7.38004C83.4152 6.04004 83.5952 4.98004 83.9552 4.20004C84.3152 3.42004 84.8252 2.83004 85.4852 2.43004C86.1652 2.01004 86.9652 1.74004 87.8852 1.62004C88.8052 1.48004 89.8252 1.41004 90.9452 1.41004C91.7252 1.41004 92.5252 1.44004 93.3452 1.50004C94.1652 1.54004 94.9352 1.60004 95.6552 1.68004C96.3952 1.74004 97.0052 1.83004 97.4852 1.95004V4.68004C96.9852 4.60004 96.3952 4.53004 95.7152 4.47004C95.0552 4.41004 94.3652 4.37004 93.6452 4.35004C92.9252 4.31004 92.2552 4.29004 91.6352 4.29004C90.5952 4.29004 89.7552 4.34004 89.1152 4.44004C88.4952 4.52004 88.0152 4.66004 87.6752 4.86004C87.2752 5.08004 87.0352 5.39004 86.9552 5.79004C86.8752 6.17004 86.8352 6.65004 86.8352 7.23004C86.8352 7.91004 86.8752 8.44004 86.9552 8.82004C87.0552 9.18004 87.2652 9.43004 87.5852 9.57004C87.9252 9.71004 88.4352 9.82004 89.1152 9.90004L94.0352 10.47C94.6552 10.53 95.2152 10.63 95.7152 10.77C96.2152 10.89 96.6552 11.1 97.0352 11.4C97.4352 11.7 97.7452 12.13 97.9652 12.69C98.1052 12.97 98.2052 13.29 98.2652 13.65C98.3452 14.01 98.4052 14.41 98.4452 14.85C98.5052 15.27 98.5352 15.75 98.5352 16.29C98.5352 17.43 98.4152 18.38 98.1752 19.14C97.9552 19.9 97.6352 20.51 97.2152 20.97C96.8152 21.41 96.3152 21.75 95.7152 21.99C95.1152 22.21 94.4552 22.35 93.7352 22.41C93.0152 22.49 92.2352 22.53 91.3952 22.53ZM106.606 22.53C105.566 22.53 104.686 22.39 103.966 22.11C103.266 21.83 102.736 21.37 102.376 20.73C102.016 20.07 101.836 19.18 101.836 18.06C101.836 16.88 101.976 15.95 102.256 15.27C102.536 14.57 103.016 14.07 103.696 13.77C104.376 13.47 105.336 13.32 106.576 13.32C106.776 13.32 107.066 13.33 107.446 13.35C107.846 13.35 108.296 13.36 108.796 13.38C109.316 13.38 109.826 13.39 110.326 13.41C110.846 13.41 111.316 13.42 111.736 13.44V12.72C111.736 11.94 111.686 11.33 111.586 10.89C111.486 10.45 111.276 10.13 110.956 9.93004C110.656 9.71004 110.216 9.57004 109.636 9.51004C109.056 9.45004 108.306 9.42004 107.386 9.42004C106.946 9.42004 106.426 9.44004 105.826 9.48004C105.246 9.50004 104.676 9.53004 104.116 9.57004C103.556 9.61004 103.126 9.66004 102.826 9.72004V7.20004C103.646 7.04004 104.546 6.93004 105.526 6.87004C106.506 6.79004 107.486 6.75004 108.466 6.75004C109.606 6.75004 110.556 6.82004 111.316 6.96004C112.096 7.10004 112.726 7.32004 113.206 7.62004C113.686 7.92004 114.046 8.31004 114.286 8.79004C114.526 9.27004 114.696 9.85004 114.796 10.53C114.896 11.19 114.946 11.95 114.946 12.81V22.29H112.006L111.886 20.31H111.706C111.366 20.95 110.906 21.44 110.326 21.78C109.766 22.1 109.156 22.3 108.496 22.38C107.836 22.48 107.206 22.53 106.606 22.53ZM108.016 19.95C108.516 19.95 108.966 19.92 109.366 19.86C109.786 19.78 110.146 19.66 110.446 19.5C110.766 19.32 111.016 19.08 111.196 18.78C111.376 18.44 111.506 18.05 111.586 17.61C111.686 17.17 111.736 16.65 111.736 16.05V15.51H107.356C106.696 15.51 106.186 15.56 105.826 15.66C105.486 15.76 105.256 15.97 105.136 16.29C105.016 16.61 104.956 17.1 104.956 17.76C104.956 18.38 105.026 18.85 105.166 19.17C105.306 19.47 105.596 19.68 106.036 19.8C106.496 19.9 107.156 19.95 108.016 19.95ZM121.078 22.29V9.66004H118.048V6.99004H121.078V5.13004C121.078 4.15004 121.148 3.35004 121.288 2.73004C121.428 2.09004 121.658 1.59004 121.978 1.23004C122.318 0.870038 122.758 0.610038 123.298 0.450038C123.858 0.270038 124.538 0.160038 125.338 0.120038C126.138 0.060038 127.078 0.0300378 128.158 0.0300378V2.43004C127.318 2.43004 126.638 2.46004 126.118 2.52004C125.618 2.56004 125.228 2.65004 124.948 2.79004C124.688 2.93004 124.508 3.15004 124.408 3.45004C124.328 3.73004 124.288 4.10004 124.288 4.56004V6.99004H128.158V9.66004H124.288V22.29H121.078ZM137.693 22.53C136.393 22.53 135.313 22.45 134.453 22.29C133.593 22.11 132.903 21.83 132.383 21.45C131.863 21.05 131.473 20.55 131.213 19.95C130.953 19.33 130.783 18.59 130.703 17.73C130.623 16.85 130.583 15.83 130.583 14.67C130.583 13.29 130.653 12.1 130.792 11.1C130.933 10.1 131.223 9.28004 131.663 8.64004C132.103 7.98004 132.783 7.50004 133.703 7.20004C134.643 6.90004 135.893 6.75004 137.453 6.75004C138.673 6.75004 139.673 6.85004 140.453 7.05004C141.233 7.23004 141.843 7.52004 142.283 7.92004C142.743 8.32004 143.073 8.84004 143.273 9.48004C143.493 10.1 143.633 10.85 143.693 11.73C143.753 12.59 143.783 13.57 143.783 14.67V15.69H133.793C133.793 16.59 133.833 17.32 133.913 17.88C133.993 18.42 134.173 18.84 134.453 19.14C134.753 19.42 135.213 19.62 135.833 19.74C136.473 19.84 137.333 19.89 138.413 19.89C138.873 19.89 139.373 19.88 139.913 19.86C140.473 19.84 141.043 19.8 141.623 19.74C142.203 19.68 142.723 19.63 143.183 19.59V22.08C142.743 22.16 142.213 22.23 141.593 22.29C140.973 22.37 140.323 22.43 139.643 22.47C138.963 22.51 138.313 22.53 137.693 22.53ZM140.723 13.98V13.41C140.723 12.51 140.663 11.8 140.543 11.28C140.443 10.74 140.263 10.34 140.003 10.08C139.763 9.80004 139.423 9.62004 138.983 9.54004C138.563 9.44004 138.033 9.39004 137.393 9.39004C136.593 9.39004 135.953 9.45004 135.473 9.57004C135.013 9.67004 134.663 9.87004 134.423 10.17C134.183 10.47 134.013 10.89 133.913 11.43C133.833 11.95 133.793 12.64 133.793 13.5H141.263L140.723 13.98ZM149.291 22.29V9.66004H146.231V6.99004H149.291V2.55004H152.471V6.99004H156.041V9.66004H152.471V22.29H149.291ZM165.192 28.47C164.612 28.47 164.002 28.45 163.362 28.41C162.742 28.39 162.142 28.36 161.562 28.32C161.002 28.28 160.502 28.23 160.062 28.17V25.68C160.782 25.7 161.402 25.72 161.922 25.74C162.462 25.76 162.942 25.77 163.362 25.77C163.782 25.79 164.152 25.8 164.472 25.8C165.552 25.8 166.402 25.73 167.022 25.59C167.642 25.45 168.102 25.21 168.402 24.87C168.702 24.53 168.882 24.06 168.942 23.46C169.022 22.88 169.062 22.14 169.062 21.24V20.31H168.882C168.682 20.75 168.382 21.13 167.982 21.45C167.602 21.75 167.092 21.99 166.452 22.17C165.832 22.33 165.062 22.41 164.142 22.41C163.082 22.41 162.212 22.29 161.532 22.05C160.872 21.79 160.362 21.42 160.002 20.94C159.662 20.44 159.432 19.82 159.312 19.08C159.192 18.34 159.132 17.48 159.132 16.5V6.99004H162.312V15.24C162.312 16.24 162.342 17.04 162.402 17.64C162.482 18.22 162.632 18.65 162.852 18.93C163.072 19.21 163.392 19.4 163.812 19.5C164.252 19.58 164.832 19.62 165.552 19.62C166.352 19.62 166.992 19.52 167.472 19.32C167.952 19.12 168.302 18.82 168.522 18.42C168.762 18.02 168.912 17.52 168.972 16.92C169.032 16.32 169.062 15.62 169.062 14.82V6.99004H172.272V20.49C172.272 21.91 172.192 23.12 172.032 24.12C171.892 25.14 171.582 25.97 171.102 26.61C170.642 27.25 169.942 27.72 169.002 28.02C168.062 28.32 166.792 28.47 165.192 28.47Z" fill="#6FB018"/>
</svg>
