<svg width="156" height="23" viewBox="0 0 156 23" fill="none" xmlns="http://www.w3.org/2000/svg">
<path d="M0.000234604 22.29V1.65004H6.75023C8.49023 1.65004 9.91023 1.74004 11.0102 1.92004C12.1302 2.08004 13.0102 2.38004 13.6502 2.82004C14.2902 3.26004 14.7502 3.87004 15.0302 4.65004C15.3302 5.43004 15.5202 6.42004 15.6002 7.62004C15.6802 8.82004 15.7202 10.27 15.7202 11.97C15.7202 13.67 15.6802 15.12 15.6002 16.32C15.5202 17.52 15.3302 18.51 15.0302 19.29C14.7502 20.07 14.2902 20.68 13.6502 21.12C13.0102 21.56 12.1302 21.87 11.0102 22.05C9.91023 22.21 8.49023 22.29 6.75023 22.29H0.000234604ZM3.39023 19.41H6.45023C7.57023 19.41 8.49023 19.39 9.21023 19.35C9.95023 19.29 10.5302 19.15 10.9502 18.93C11.3702 18.69 11.6802 18.31 11.8802 17.79C12.0802 17.27 12.2002 16.54 12.2402 15.6C12.3002 14.64 12.3302 13.43 12.3302 11.97C12.3302 10.51 12.3002 9.31004 12.2402 8.37004C12.2002 7.43004 12.0702 6.70004 11.8502 6.18004C11.6502 5.64004 11.3302 5.26004 10.8902 5.04004C10.4702 4.80004 9.90023 4.66004 9.18024 4.62004C8.46024 4.56004 7.55023 4.53004 6.45023 4.53004H3.39023V19.41ZM20.1766 22.29V3.8147e-05H23.3566V8.88004H23.5666C23.8066 8.42004 24.1266 8.04004 24.5266 7.74004C24.9266 7.42004 25.4266 7.18004 26.0266 7.02004C26.6466 6.86004 27.3966 6.78004 28.2766 6.78004C29.3566 6.78004 30.2266 6.90004 30.8866 7.14004C31.5666 7.38004 32.0766 7.75004 32.4166 8.25004C32.7566 8.75004 32.9866 9.37004 33.1066 10.11C33.2466 10.85 33.3166 11.72 33.3166 12.72V22.29H30.1066V13.98C30.1066 12.98 30.0666 12.19 29.9866 11.61C29.9266 11.01 29.7866 10.57 29.5666 10.29C29.3466 9.99004 29.0166 9.80004 28.5766 9.72004C28.1566 9.64004 27.5866 9.60004 26.8666 9.60004C26.0666 9.60004 25.4266 9.70004 24.9466 9.90004C24.4866 10.1 24.1366 10.4 23.8966 10.8C23.6766 11.2 23.5266 11.7 23.4466 12.3C23.3866 12.9 23.3566 13.6 23.3566 14.4V22.29H20.1766ZM41.9477 22.53C40.9077 22.53 40.0277 22.39 39.3077 22.11C38.6077 21.83 38.0777 21.37 37.7177 20.73C37.3577 20.07 37.1777 19.18 37.1777 18.06C37.1777 16.88 37.3177 15.95 37.5977 15.27C37.8777 14.57 38.3577 14.07 39.0377 13.77C39.7177 13.47 40.6777 13.32 41.9177 13.32C42.1177 13.32 42.4077 13.33 42.7877 13.35C43.1877 13.35 43.6377 13.36 44.1377 13.38C44.6577 13.38 45.1677 13.39 45.6677 13.41C46.1877 13.41 46.6577 13.42 47.0777 13.44V12.72C47.0777 11.94 47.0277 11.33 46.9277 10.89C46.8277 10.45 46.6177 10.13 46.2977 9.93004C45.9977 9.71004 45.5577 9.57004 44.9777 9.51004C44.3977 9.45004 43.6477 9.42004 42.7277 9.42004C42.2877 9.42004 41.7677 9.44004 41.1677 9.48004C40.5877 9.50004 40.0177 9.53004 39.4577 9.57004C38.8977 9.61004 38.4677 9.66004 38.1677 9.72004V7.20004C38.9877 7.04004 39.8877 6.93004 40.8677 6.87004C41.8477 6.79004 42.8277 6.75004 43.8077 6.75004C44.9477 6.75004 45.8977 6.82004 46.6577 6.96004C47.4377 7.10004 48.0677 7.32004 48.5477 7.62004C49.0277 7.92004 49.3877 8.31004 49.6277 8.79004C49.8677 9.27004 50.0377 9.85004 50.1377 10.53C50.2377 11.19 50.2877 11.95 50.2877 12.81V22.29H47.3477L47.2277 20.31H47.0477C46.7077 20.95 46.2477 21.44 45.6677 21.78C45.1077 22.1 44.4977 22.3 43.8377 22.38C43.1777 22.48 42.5477 22.53 41.9477 22.53ZM43.3577 19.95C43.8577 19.95 44.3077 19.92 44.7077 19.86C45.1277 19.78 45.4877 19.66 45.7877 19.5C46.1077 19.32 46.3577 19.08 46.5377 18.78C46.7177 18.44 46.8477 18.05 46.9277 17.61C47.0277 17.17 47.0777 16.65 47.0777 16.05V15.51H42.6977C42.0377 15.51 41.5277 15.56 41.1677 15.66C40.8277 15.76 40.5977 15.97 40.4777 16.29C40.3577 16.61 40.2977 17.1 40.2977 17.76C40.2977 18.38 40.3677 18.85 40.5077 19.17C40.6477 19.47 40.9377 19.68 41.3777 19.8C41.8377 19.9 42.4977 19.95 43.3577 19.95ZM56.2734 22.29V9.66004H53.2134V6.99004H56.2734V2.55004H59.4534V6.99004H63.0234V9.66004H59.4534V22.29H56.2734ZM71.1241 22.53C70.0641 22.53 69.1941 22.41 68.5141 22.17C67.8541 21.91 67.3441 21.53 66.9841 21.03C66.6441 20.53 66.4141 19.91 66.2941 19.17C66.1741 18.43 66.1141 17.56 66.1141 16.56V6.99004H69.2941V15.3C69.2941 16.3 69.3241 17.1 69.3841 17.7C69.4641 18.28 69.6141 18.72 69.8341 19.02C70.0541 19.3 70.3741 19.48 70.7941 19.56C71.2341 19.64 71.8141 19.68 72.5341 19.68C73.3341 19.68 73.9741 19.58 74.4541 19.38C74.9341 19.18 75.2841 18.88 75.5041 18.48C75.7441 18.08 75.8941 17.58 75.9541 16.98C76.0141 16.38 76.0441 15.68 76.0441 14.88V6.99004H79.2541V22.29H76.3141L76.1941 20.25H75.9841C75.7641 20.73 75.4441 21.14 75.0241 21.48C74.6241 21.82 74.1041 22.08 73.4641 22.26C72.8241 22.44 72.0441 22.53 71.1241 22.53Z" fill="#4B0081"/>
<path d="M84.3752 22.29V1.65004H88.9952L95.0552 16.65H95.2052L101.265 1.65004H105.885V22.29H102.615V6.90004H102.495L96.2552 22.29H93.8552L87.6752 6.90004H87.5552V22.29H84.3752ZM117.536 22.53C116.236 22.53 115.156 22.45 114.296 22.29C113.436 22.11 112.746 21.83 112.226 21.45C111.706 21.05 111.316 20.55 111.056 19.95C110.796 19.33 110.626 18.59 110.546 17.73C110.466 16.85 110.426 15.83 110.426 14.67C110.426 13.29 110.496 12.1 110.636 11.1C110.776 10.1 111.066 9.28004 111.506 8.64004C111.946 7.98004 112.626 7.50004 113.546 7.20004C114.486 6.90004 115.736 6.75004 117.296 6.75004C118.516 6.75004 119.516 6.85004 120.296 7.05004C121.076 7.23004 121.686 7.52004 122.126 7.92004C122.586 8.32004 122.916 8.84004 123.116 9.48004C123.336 10.1 123.476 10.85 123.536 11.73C123.596 12.59 123.626 13.57 123.626 14.67V15.69H113.636C113.636 16.59 113.676 17.32 113.756 17.88C113.836 18.42 114.016 18.84 114.296 19.14C114.596 19.42 115.056 19.62 115.676 19.74C116.316 19.84 117.176 19.89 118.256 19.89C118.716 19.89 119.216 19.88 119.756 19.86C120.316 19.84 120.886 19.8 121.466 19.74C122.046 19.68 122.566 19.63 123.026 19.59V22.08C122.586 22.16 122.056 22.23 121.436 22.29C120.816 22.37 120.166 22.43 119.486 22.47C118.806 22.51 118.156 22.53 117.536 22.53ZM120.566 13.98V13.41C120.566 12.51 120.506 11.8 120.386 11.28C120.286 10.74 120.106 10.34 119.846 10.08C119.606 9.80004 119.266 9.62004 118.826 9.54004C118.406 9.44004 117.876 9.39004 117.236 9.39004C116.436 9.39004 115.796 9.45004 115.316 9.57004C114.856 9.67004 114.506 9.87004 114.266 10.17C114.026 10.47 113.856 10.89 113.756 11.43C113.676 11.95 113.636 12.64 113.636 13.5H121.106L120.566 13.98ZM133.095 22.53C132.495 22.53 131.845 22.51 131.145 22.47C130.465 22.43 129.795 22.38 129.135 22.32C128.475 22.26 127.885 22.19 127.365 22.11V19.59C127.705 19.61 128.085 19.64 128.505 19.68C128.945 19.72 129.405 19.75 129.885 19.77C130.365 19.79 130.835 19.81 131.295 19.83C131.755 19.85 132.205 19.86 132.645 19.86C133.605 19.86 134.295 19.8 134.715 19.68C135.155 19.56 135.435 19.36 135.555 19.08C135.695 18.78 135.765 18.4 135.765 17.94C135.765 17.42 135.715 17.04 135.615 16.8C135.535 16.56 135.375 16.4 135.135 16.32C134.895 16.24 134.525 16.17 134.025 16.11L130.305 15.66C129.345 15.56 128.615 15.34 128.115 15C127.635 14.64 127.305 14.16 127.125 13.56C126.965 12.94 126.885 12.19 126.885 11.31C126.885 10.29 127.025 9.48004 127.305 8.88004C127.605 8.26004 128.015 7.80004 128.535 7.50004C129.075 7.20004 129.725 7.00004 130.485 6.90004C131.245 6.80004 132.075 6.75004 132.975 6.75004C133.535 6.75004 134.115 6.77004 134.715 6.81004C135.335 6.85004 135.925 6.91004 136.485 6.99004C137.065 7.05004 137.565 7.12004 137.985 7.20004V9.72004C137.505 9.66004 136.985 9.61004 136.425 9.57004C135.865 9.53004 135.305 9.50004 134.745 9.48004C134.205 9.44004 133.685 9.42004 133.185 9.42004C132.445 9.42004 131.835 9.46004 131.355 9.54004C130.875 9.60004 130.515 9.76004 130.275 10.02C130.055 10.26 129.945 10.68 129.945 11.28C129.945 11.74 129.975 12.09 130.035 12.33C130.115 12.55 130.265 12.71 130.485 12.81C130.725 12.89 131.085 12.96 131.565 13.02L135.585 13.5C136.345 13.58 136.955 13.74 137.415 13.98C137.895 14.2 138.245 14.61 138.465 15.21C138.705 15.79 138.825 16.68 138.825 17.88C138.825 18.88 138.695 19.69 138.435 20.31C138.195 20.91 137.825 21.38 137.325 21.72C136.825 22.04 136.215 22.25 135.495 22.35C134.795 22.47 133.995 22.53 133.095 22.53ZM142.696 22.29V3.8147e-05H145.876V8.88004H146.086C146.326 8.42004 146.646 8.04004 147.046 7.74004C147.446 7.42004 147.946 7.18004 148.546 7.02004C149.166 6.86004 149.916 6.78004 150.796 6.78004C151.876 6.78004 152.746 6.90004 153.406 7.14004C154.086 7.38004 154.596 7.75004 154.936 8.25004C155.276 8.75004 155.506 9.37004 155.626 10.11C155.766 10.85 155.836 11.72 155.836 12.72V22.29H152.626V13.98C152.626 12.98 152.586 12.19 152.506 11.61C152.446 11.01 152.306 10.57 152.086 10.29C151.866 9.99004 151.536 9.80004 151.096 9.72004C150.676 9.64004 150.106 9.60004 149.386 9.60004C148.586 9.60004 147.946 9.70004 147.466 9.90004C147.006 10.1 146.656 10.4 146.416 10.8C146.196 11.2 146.046 11.7 145.966 12.3C145.906 12.9 145.876 13.6 145.876 14.4V22.29H142.696Z" fill="#6FB018"/>
</svg>
