<svg width="1073" height="840" viewBox="0 0 1073 840" fill="none" xmlns="http://www.w3.org/2000/svg">
<path d="M388.308 1.0293L289.308 50.2735M388.308 1.0293L538.308 18.9227M388.308 1.0293L432.448 116.529M140.808 502.029L127.192 624.029M140.808 502.029L212.308 476.029M140.808 502.029L86.8081 382.61M674.308 735.029L528.808 768.722M674.308 735.029L776.704 715.529M674.308 735.029L589.308 523.801M969.308 302.529L1006.2 419.529M969.308 302.529L874.308 335.529M969.308 302.529L957.588 210.529M103.308 142.793L1.30811 193.529L40.6485 280.529M103.308 142.793L190.308 99.5177M103.308 142.793L174.529 360.529M212.308 476.029L235.808 816.319M212.308 476.029L174.529 360.529M212.308 476.029L315.308 454.029M235.808 816.319L103.308 838.029L113.576 746.029M235.808 816.319L388.308 791.332M388.308 791.332L487.808 775.029L528.808 768.722M388.308 791.332L315.308 454.029M315.308 454.029L424.308 426.529M315.308 454.029L273.525 335.529M190.308 99.5177L289.308 50.2735M190.308 99.5177L223.456 193.529M289.308 50.2735L327.433 156.529M424.308 426.529L528.808 768.722M424.308 426.529L545.308 393.529L648.808 378.029M424.308 426.529L379.817 302.529M538.308 18.9227L585.308 24.5293L663.808 33.9537M538.308 18.9227L568.342 116.529M648.808 378.029L695.798 502.029M648.808 378.029L753.308 360.529M648.808 378.029L611.114 255.529M776.704 715.529L874.308 685.877M776.704 715.529L695.798 502.029M874.308 685.877L972.808 655.953M874.308 685.877L796.264 476.029M753.308 360.529L796.264 476.029M753.308 360.529L874.308 335.529M753.308 360.529L718.914 235.029M663.808 33.9537L801.558 50.4915M663.808 33.9537L686.808 116.529M801.558 50.4915L939.308 67.0293L947.015 127.529M801.558 50.4915L822.308 123.029M874.308 335.529L907.815 444.529M874.308 335.529L848.658 235.029M972.808 655.953L1071.31 626.029L1043.09 536.529M972.808 655.953L907.815 444.529M1043.09 536.529L589.308 641.529L480.308 666.529L113.576 746.029M1043.09 536.529L1006.2 419.529M113.576 746.029L127.192 624.029M127.192 624.029L487.808 549.029L589.308 523.801M589.308 523.801L538.308 393.529L432.448 116.529M589.308 523.801L695.798 502.029M695.798 502.029L796.264 476.029M796.264 476.029L907.815 444.529M907.815 444.529L1006.2 419.529M86.8081 382.61L174.529 360.529M86.8081 382.61L40.6485 280.529M174.529 360.529L273.525 335.529M273.525 335.529L371.808 305.016M273.525 335.529L223.456 193.529M379.817 302.529L371.808 305.016M379.817 302.529L327.433 156.529M371.808 305.016L487.808 272.029L611.114 255.529M611.114 255.529L718.914 235.029M611.114 255.529L568.342 116.529M718.914 235.029H848.658M718.914 235.029L686.808 116.529M848.658 235.029L957.588 210.529M848.658 235.029L822.308 123.029M957.588 210.529L947.015 127.529M947.015 127.529L822.308 123.029M822.308 123.029L686.808 116.529M686.808 116.529H631.308H568.342M568.342 116.529H432.448M432.448 116.529L327.433 156.529M327.433 156.529L223.456 193.529M223.456 193.529L174.529 224.029L40.6485 280.529" stroke="#E5E5E5" stroke-width="2"/>
</svg>
