<svg width="265" height="37" viewBox="0 0 265 37" fill="none" xmlns="http://www.w3.org/2000/svg">
<path d="M-9.34601e-05 28.2339V2.08989H8.54991C10.7539 2.08989 12.5526 2.20389 13.9459 2.43189C15.3646 2.63455 16.4792 3.01455 17.2899 3.57188C18.1006 4.12922 18.6832 4.90189 19.0379 5.88989C19.4179 6.87789 19.6586 8.13189 19.7599 9.65189C19.8612 11.1719 19.9119 13.0086 19.9119 15.1619C19.9119 17.3152 19.8612 19.1519 19.7599 20.6719C19.6586 22.1919 19.4179 23.4459 19.0379 24.4339C18.6832 25.4219 18.1006 26.1946 17.2899 26.7519C16.4792 27.3092 15.3646 27.7019 13.9459 27.9299C12.5526 28.1326 10.7539 28.2339 8.54991 28.2339H-9.34601e-05ZM4.29391 24.5859H8.16991C9.58857 24.5859 10.7539 24.5606 11.6659 24.5099C12.6032 24.4339 13.3379 24.2566 13.8699 23.9779C14.4019 23.6739 14.7946 23.1926 15.0479 22.5339C15.3012 21.8752 15.4532 20.9506 15.5039 19.7599C15.5799 18.5439 15.6179 17.0112 15.6179 15.1619C15.6179 13.3126 15.5799 11.7926 15.5039 10.6019C15.4532 9.41122 15.2886 8.48655 15.0099 7.82789C14.7566 7.14389 14.3512 6.66255 13.7939 6.38388C13.2619 6.07989 12.5399 5.90255 11.6279 5.85188C10.7159 5.77589 9.56324 5.73789 8.16991 5.73789H4.29391V24.5859ZM25.5567 28.2339V-0.000114441H29.5847V11.2479H29.8507C30.1547 10.6652 30.56 10.1839 31.0667 9.80389C31.5734 9.39855 32.2067 9.09455 32.9667 8.89189C33.752 8.68922 34.702 8.58789 35.8167 8.58789C37.1847 8.58789 38.2867 8.73989 39.1227 9.04389C39.984 9.34789 40.63 9.81655 41.0607 10.4499C41.4914 11.0832 41.7827 11.8686 41.9347 12.8059C42.112 13.7432 42.2007 14.8452 42.2007 16.1119V28.2339H38.1347V17.7079C38.1347 16.4412 38.084 15.4406 37.9827 14.7059C37.9067 13.9459 37.7294 13.3886 37.4507 13.0339C37.172 12.6539 36.754 12.4132 36.1967 12.3119C35.6647 12.2106 34.9427 12.1599 34.0307 12.1599C33.0174 12.1599 32.2067 12.2866 31.5987 12.5399C31.016 12.7932 30.5727 13.1732 30.2687 13.6799C29.99 14.1866 29.8 14.8199 29.6987 15.5799C29.6227 16.3399 29.5847 17.2266 29.5847 18.2399V28.2339H25.5567ZM53.1334 28.5379C51.8161 28.5379 50.7014 28.3606 49.7894 28.0059C48.9027 27.6512 48.2314 27.0686 47.7754 26.2579C47.3194 25.4219 47.0914 24.2946 47.0914 22.8759C47.0914 21.3812 47.2687 20.2032 47.6234 19.3419C47.9781 18.4552 48.5861 17.8219 49.4474 17.4419C50.3087 17.0619 51.5247 16.8719 53.0954 16.8719C53.3487 16.8719 53.7161 16.8846 54.1974 16.9099C54.7041 16.9099 55.2741 16.9226 55.9074 16.9479C56.5661 16.9479 57.2121 16.9606 57.8454 16.9859C58.5041 16.9859 59.0994 16.9986 59.6314 17.0239V16.1119C59.6314 15.1239 59.5681 14.3512 59.4414 13.7939C59.3147 13.2366 59.0487 12.8312 58.6434 12.5779C58.2634 12.2992 57.7061 12.1219 56.9714 12.0459C56.2367 11.9699 55.2867 11.9319 54.1214 11.9319C53.5641 11.9319 52.9054 11.9572 52.1454 12.0079C51.4107 12.0332 50.6887 12.0712 49.9794 12.1219C49.2701 12.1726 48.7254 12.2359 48.3454 12.3119V9.11989C49.3841 8.91722 50.5241 8.77789 51.7654 8.70189C53.0067 8.60055 54.2481 8.54989 55.4894 8.54989C56.9334 8.54989 58.1367 8.63855 59.0994 8.81589C60.0874 8.99322 60.8854 9.27189 61.4934 9.65189C62.1014 10.0319 62.5574 10.5259 62.8614 11.1339C63.1654 11.7419 63.3807 12.4766 63.5074 13.3379C63.6341 14.1739 63.6974 15.1366 63.6974 16.2259V28.2339H59.9734L59.8214 25.7259H59.5934C59.1627 26.5366 58.5801 27.1572 57.8454 27.5879C57.1361 27.9932 56.3634 28.2466 55.5274 28.3479C54.6914 28.4746 53.8934 28.5379 53.1334 28.5379ZM54.9194 25.2699C55.5527 25.2699 56.1227 25.2319 56.6294 25.1559C57.1614 25.0546 57.6174 24.9026 57.9974 24.6999C58.4027 24.4719 58.7194 24.1679 58.9474 23.7879C59.1754 23.3572 59.3401 22.8632 59.4414 22.3059C59.5681 21.7486 59.6314 21.0899 59.6314 20.3299V19.6459H54.0834C53.2474 19.6459 52.6014 19.7092 52.1454 19.8359C51.7147 19.9626 51.4234 20.2286 51.2714 20.6339C51.1194 21.0392 51.0434 21.6599 51.0434 22.4959C51.0434 23.2812 51.1321 23.8766 51.3094 24.2819C51.4867 24.6619 51.8541 24.9279 52.4114 25.0799C52.9941 25.2066 53.8301 25.2699 54.9194 25.2699ZM71.2793 28.2339V12.2359H67.4033V8.85388H71.2793V3.22988H75.3073V8.85388H79.8293V12.2359H75.3073V28.2339H71.2793ZM90.0902 28.5379C88.7475 28.5379 87.6455 28.3859 86.7842 28.0819C85.9482 27.7526 85.3022 27.2712 84.8462 26.6379C84.4155 26.0046 84.1242 25.2192 83.9722 24.2819C83.8202 23.3446 83.7442 22.2426 83.7442 20.9759V8.85388H87.7722V19.3799C87.7722 20.6466 87.8102 21.6599 87.8862 22.4199C87.9875 23.1546 88.1775 23.7119 88.4562 24.0919C88.7349 24.4466 89.1402 24.6746 89.6722 24.7759C90.2295 24.8772 90.9642 24.9279 91.8762 24.9279C92.8895 24.9279 93.7002 24.8012 94.3082 24.5479C94.9162 24.2946 95.3595 23.9146 95.6382 23.4079C95.9422 22.9012 96.1322 22.2679 96.2082 21.5079C96.2842 20.7479 96.3222 19.8612 96.3222 18.8479V8.85388H100.388V28.2339H96.6642L96.5122 25.6499H96.2462C95.9675 26.2579 95.5622 26.7772 95.0302 27.2079C94.5235 27.6386 93.8649 27.9679 93.0542 28.1959C92.2435 28.4239 91.2555 28.5379 90.0902 28.5379Z" fill="#4B0081"/>
<path d="M104.215 28.2339L113.563 2.08989H119.187L128.535 28.2339H124.089L121.809 21.7739H110.789L108.547 28.2339H104.215ZM112.005 18.1259H120.555L116.375 6.23188H116.185L112.005 18.1259ZM139.615 28.5379C138.121 28.5379 136.879 28.4112 135.891 28.1579C134.929 27.8792 134.156 27.4866 133.573 26.9799C132.991 26.4479 132.56 25.7892 132.281 25.0039C132.003 24.1932 131.813 23.2559 131.711 22.1919C131.635 21.1026 131.597 19.8739 131.597 18.5059C131.597 17.1632 131.648 15.9599 131.749 14.8959C131.851 13.8319 132.053 12.9072 132.357 12.1219C132.687 11.3112 133.143 10.6526 133.725 10.1459C134.308 9.61389 135.068 9.22122 136.005 8.96789C136.943 8.68922 138.121 8.54989 139.539 8.54989C140.451 8.54989 141.401 8.60055 142.389 8.70189C143.403 8.80322 144.239 8.92989 144.897 9.08189V12.2739C144.34 12.1726 143.643 12.0966 142.807 12.0459C141.997 11.9699 141.249 11.9319 140.565 11.9319C139.476 11.9319 138.602 12.0206 137.943 12.1979C137.31 12.3752 136.829 12.7046 136.499 13.1859C136.17 13.6672 135.942 14.3386 135.815 15.1999C135.714 16.0612 135.663 17.1759 135.663 18.5439C135.663 19.9372 135.714 21.0772 135.815 21.9639C135.942 22.8506 136.17 23.5219 136.499 23.9779C136.854 24.4339 137.361 24.7506 138.019 24.9279C138.678 25.0799 139.552 25.1559 140.641 25.1559C141.275 25.1559 141.984 25.1306 142.769 25.0799C143.58 25.0039 144.353 24.9152 145.087 24.8139V28.0059C144.403 28.1579 143.555 28.2846 142.541 28.3859C141.528 28.4872 140.553 28.5379 139.615 28.5379ZM154.813 28.5379C153.496 28.5379 152.381 28.3606 151.469 28.0059C150.582 27.6512 149.911 27.0686 149.455 26.2579C148.999 25.4219 148.771 24.2946 148.771 22.8759C148.771 21.3812 148.948 20.2032 149.303 19.3419C149.658 18.4552 150.266 17.8219 151.127 17.4419C151.988 17.0619 153.204 16.8719 154.775 16.8719C155.028 16.8719 155.396 16.8846 155.877 16.9099C156.384 16.9099 156.954 16.9226 157.587 16.9479C158.246 16.9479 158.892 16.9606 159.525 16.9859C160.184 16.9859 160.779 16.9986 161.311 17.0239V16.1119C161.311 15.1239 161.248 14.3512 161.121 13.7939C160.994 13.2366 160.728 12.8312 160.323 12.5779C159.943 12.2992 159.386 12.1219 158.651 12.0459C157.916 11.9699 156.966 11.9319 155.801 11.9319C155.244 11.9319 154.585 11.9572 153.825 12.0079C153.09 12.0332 152.368 12.0712 151.659 12.1219C150.95 12.1726 150.405 12.2359 150.025 12.3119V9.11989C151.064 8.91722 152.204 8.77789 153.445 8.70189C154.686 8.60055 155.928 8.54989 157.169 8.54989C158.613 8.54989 159.816 8.63855 160.779 8.81589C161.767 8.99322 162.565 9.27189 163.173 9.65189C163.781 10.0319 164.237 10.5259 164.541 11.1339C164.845 11.7419 165.06 12.4766 165.187 13.3379C165.314 14.1739 165.377 15.1366 165.377 16.2259V28.2339H161.653L161.501 25.7259H161.273C160.842 26.5366 160.26 27.1572 159.525 27.5879C158.816 27.9932 158.043 28.2466 157.207 28.3479C156.371 28.4746 155.573 28.5379 154.813 28.5379ZM156.599 25.2699C157.232 25.2699 157.802 25.2319 158.309 25.1559C158.841 25.0546 159.297 24.9026 159.677 24.6999C160.082 24.4719 160.399 24.1679 160.627 23.7879C160.855 23.3572 161.02 22.8632 161.121 22.3059C161.248 21.7486 161.311 21.0899 161.311 20.3299V19.6459H155.763C154.927 19.6459 154.281 19.7092 153.825 19.8359C153.394 19.9626 153.103 20.2286 152.951 20.6339C152.799 21.0392 152.723 21.6599 152.723 22.4959C152.723 23.2812 152.812 23.8766 152.989 24.2819C153.166 24.6619 153.534 24.9279 154.091 25.0799C154.674 25.2066 155.51 25.2699 156.599 25.2699ZM177.553 28.5379C176.261 28.5379 175.171 28.3859 174.285 28.0819C173.398 27.7526 172.689 27.2206 172.157 26.4859C171.625 25.7259 171.232 24.6999 170.979 23.4079C170.751 22.1159 170.637 20.5072 170.637 18.5819C170.637 16.6312 170.751 15.0099 170.979 13.7179C171.232 12.4259 171.612 11.4126 172.119 10.6779C172.651 9.91789 173.347 9.37322 174.209 9.04389C175.07 8.71455 176.134 8.54989 177.401 8.54989C178.338 8.54989 179.187 8.62589 179.947 8.77789C180.707 8.92989 181.378 9.19589 181.961 9.57589C182.569 9.93055 183.05 10.4499 183.405 11.1339H183.671V-0.000114441H187.699V28.2339H183.975L183.823 25.6879H183.595C183.215 26.4986 182.695 27.1066 182.037 27.5119C181.403 27.9172 180.694 28.1832 179.909 28.3099C179.123 28.4619 178.338 28.5379 177.553 28.5379ZM179.187 24.9659C180.301 24.9659 181.163 24.8266 181.771 24.5479C182.404 24.2439 182.847 23.7752 183.101 23.1419C183.354 22.5592 183.506 21.8879 183.557 21.1279C183.633 20.3679 183.671 19.4812 183.671 18.4679C183.671 17.5052 183.633 16.6692 183.557 15.9599C183.506 15.2252 183.367 14.6046 183.139 14.0979C182.86 13.4139 182.404 12.9199 181.771 12.6159C181.163 12.3119 180.301 12.1599 179.187 12.1599C178.173 12.1599 177.363 12.2359 176.755 12.3879C176.172 12.5146 175.729 12.7932 175.425 13.2239C175.146 13.6292 174.956 14.2626 174.855 15.1239C174.753 15.9599 174.703 17.0999 174.703 18.5439C174.703 19.9879 174.753 21.1406 174.855 22.0019C174.956 22.8379 175.159 23.4712 175.463 23.9019C175.767 24.3326 176.21 24.6239 176.793 24.7759C177.401 24.9026 178.199 24.9659 179.187 24.9659ZM201.945 28.5379C200.299 28.5379 198.931 28.4366 197.841 28.2339C196.752 28.0059 195.878 27.6512 195.219 27.1699C194.561 26.6632 194.067 26.0299 193.737 25.2699C193.408 24.4846 193.193 23.5472 193.091 22.4579C192.99 21.3432 192.939 20.0512 192.939 18.5819C192.939 16.8339 193.028 15.3266 193.205 14.0599C193.383 12.7932 193.75 11.7546 194.307 10.9439C194.865 10.1079 195.726 9.49989 196.891 9.11989C198.082 8.73989 199.665 8.54989 201.641 8.54989C203.187 8.54989 204.453 8.67655 205.441 8.92989C206.429 9.15789 207.202 9.52522 207.759 10.0319C208.342 10.5386 208.76 11.1972 209.013 12.0079C209.292 12.7932 209.469 13.7432 209.545 14.8579C209.621 15.9472 209.659 17.1886 209.659 18.5819V19.8739H197.005C197.005 21.0139 197.056 21.9386 197.157 22.6479C197.259 23.3319 197.487 23.8639 197.841 24.2439C198.221 24.5986 198.804 24.8519 199.589 25.0039C200.4 25.1306 201.489 25.1939 202.857 25.1939C203.44 25.1939 204.073 25.1812 204.757 25.1559C205.467 25.1306 206.189 25.0799 206.923 25.0039C207.658 24.9279 208.317 24.8646 208.899 24.8139V27.9679C208.342 28.0692 207.671 28.1579 206.885 28.2339C206.1 28.3352 205.277 28.4112 204.415 28.4619C203.554 28.5126 202.731 28.5379 201.945 28.5379ZM205.783 17.7079V16.9859C205.783 15.8459 205.707 14.9466 205.555 14.2879C205.429 13.6039 205.201 13.0972 204.871 12.7679C204.567 12.4132 204.137 12.1852 203.579 12.0839C203.047 11.9572 202.376 11.8939 201.565 11.8939C200.552 11.8939 199.741 11.9699 199.133 12.1219C198.551 12.2486 198.107 12.5019 197.803 12.8819C197.499 13.2619 197.284 13.7939 197.157 14.4779C197.056 15.1366 197.005 16.0106 197.005 17.0999H206.467L205.783 17.7079ZM214.889 28.2339V8.85388H218.613L218.727 11.4379H218.993C219.271 10.8299 219.651 10.3106 220.133 9.87989C220.639 9.44922 221.26 9.11989 221.995 8.89189C222.755 8.66389 223.667 8.54989 224.731 8.54989C226.352 8.54989 227.568 8.79055 228.379 9.27189C229.189 9.72789 229.759 10.4499 230.089 11.4379H230.393C230.671 10.8299 231.064 10.3106 231.571 9.87989C232.103 9.44922 232.749 9.11989 233.509 8.89189C234.294 8.66389 235.219 8.54989 236.283 8.54989C237.955 8.54989 239.209 8.82855 240.045 9.38589C240.881 9.94322 241.438 10.7919 241.717 11.9319C241.995 13.0466 242.135 14.4399 242.135 16.1119V28.2339H238.107V17.7079C238.107 16.4412 238.069 15.4406 237.993 14.7059C237.917 13.9459 237.752 13.3886 237.499 13.0339C237.271 12.6539 236.903 12.4132 236.397 12.3119C235.915 12.2106 235.282 12.1599 234.497 12.1599C233.585 12.1599 232.863 12.2866 232.331 12.5399C231.799 12.7679 231.406 13.1352 231.153 13.6419C230.899 14.1232 230.735 14.7439 230.659 15.5039C230.583 16.2639 230.545 17.1759 230.545 18.2399V28.2339H226.517V17.7079C226.517 16.4412 226.466 15.4406 226.365 14.7059C226.289 13.9459 226.124 13.3886 225.871 13.0339C225.643 12.6539 225.288 12.4132 224.807 12.3119C224.325 12.2106 223.679 12.1599 222.869 12.1599C221.982 12.1599 221.273 12.2866 220.741 12.5399C220.209 12.7932 219.803 13.1732 219.525 13.6799C219.271 14.1612 219.107 14.7946 219.031 15.5799C218.955 16.3399 218.917 17.2266 218.917 18.2399V28.2339H214.889ZM255.852 36.0619C255.117 36.0619 254.344 36.0366 253.534 35.9859C252.748 35.9606 251.988 35.9226 251.254 35.8719C250.544 35.8212 249.911 35.7579 249.354 35.6819V32.5279C250.266 32.5532 251.051 32.5786 251.71 32.6039C252.394 32.6292 253.002 32.6419 253.534 32.6419C254.066 32.6672 254.534 32.6799 254.94 32.6799C256.308 32.6799 257.384 32.5912 258.17 32.4139C258.955 32.2366 259.538 31.9326 259.918 31.5019C260.298 31.0712 260.526 30.4759 260.602 29.7159C260.703 28.9812 260.754 28.0439 260.754 26.9039V25.7259H260.526C260.272 26.2832 259.892 26.7646 259.386 27.1699C258.904 27.5499 258.258 27.8539 257.448 28.0819C256.662 28.2846 255.687 28.3859 254.522 28.3859C253.179 28.3859 252.077 28.2339 251.216 27.9299C250.38 27.6006 249.734 27.1319 249.278 26.5239C248.847 25.8906 248.556 25.1052 248.404 24.1679C248.252 23.2306 248.176 22.1412 248.176 20.8999V8.85388H252.204V19.3039C252.204 20.5706 252.242 21.5839 252.318 22.3439C252.419 23.0786 252.609 23.6232 252.888 23.9779C253.166 24.3326 253.572 24.5732 254.104 24.6999C254.661 24.8012 255.396 24.8519 256.308 24.8519C257.321 24.8519 258.132 24.7252 258.74 24.4719C259.348 24.2186 259.791 23.8386 260.07 23.3319C260.374 22.8252 260.564 22.1919 260.64 21.4319C260.716 20.6719 260.754 19.7852 260.754 18.7719V8.85388H264.82V25.9539C264.82 27.7526 264.718 29.2852 264.516 30.5519C264.338 31.8439 263.946 32.8952 263.338 33.7059C262.755 34.5166 261.868 35.1119 260.678 35.4919C259.487 35.8719 257.878 36.0619 255.852 36.0619Z" fill="#6FB018"/>
</svg>
