<svg width="50" height="50" viewBox="0 0 50 50" fill="none" xmlns="http://www.w3.org/2000/svg">
<mask id="mask0_1191_4664" style="mask-type:alpha" maskUnits="userSpaceOnUse" x="0" y="0" width="50" height="50">
<rect width="50" height="50" fill="#D9D9D9"/>
</mask>
<g mask="url(#mask0_1191_4664)">
<path d="M20.8346 33.3268C24.3069 33.3268 27.2582 32.1115 29.6888 29.681C32.1194 27.2504 33.3346 24.299 33.3346 20.8268C33.3346 17.3546 32.1194 14.4032 29.6888 11.9727C27.2582 9.5421 24.3069 8.32682 20.8346 8.32682C17.3624 8.32682 14.411 9.5421 11.9805 11.9727C9.54991 14.4032 8.33464 17.3546 8.33464 20.8268C8.33464 24.299 9.54991 27.2504 11.9805 29.681C14.411 32.1115 17.3624 33.3268 20.8346 33.3268ZM18.7513 27.0768V12.4935H22.918V27.0768H18.7513ZM11.4596 27.0768V16.6602H15.6263V27.0768H11.4596ZM26.043 27.0768V18.7435H30.2096V27.0768H26.043ZM42.918 45.8268L31.0951 34.0039C29.6714 35.115 28.0916 35.9744 26.3555 36.582C24.6194 37.1897 22.7791 37.4935 20.8346 37.4935C16.1819 37.4935 12.2409 35.8789 9.01172 32.6497C5.78255 29.4206 4.16797 25.4796 4.16797 20.8268C4.16797 16.174 5.78255 12.2331 9.01172 9.00391C12.2409 5.77474 16.1819 4.16016 20.8346 4.16016C25.4874 4.16016 29.4284 5.77474 32.6576 9.00391C35.8867 12.2331 37.5013 16.174 37.5013 20.8268C37.5013 22.7713 37.1975 24.6115 36.5898 26.3477C35.9822 28.0838 35.1228 29.6636 34.0117 31.0872L45.8346 42.9102L42.918 45.8268Z" fill="black"/>
</g>
</svg>
