<svg width="50" height="50" viewBox="0 0 50 50" fill="none" xmlns="http://www.w3.org/2000/svg">
<mask id="mask0_1191_4654" style="mask-type:alpha" maskUnits="userSpaceOnUse" x="0" y="0" width="50" height="50">
<rect width="50" height="50" fill="#D9D9D9"/>
</mask>
<g mask="url(#mask0_1191_4654)">
<path d="M23.1253 39.5833H26.7712V36.9792C28.5073 36.6667 30.0003 35.9896 31.2503 34.9479C32.5003 33.9063 33.1253 32.3611 33.1253 30.3125C33.1253 28.8542 32.7087 27.5174 31.8753 26.3021C31.042 25.0868 29.3753 24.0278 26.8753 23.125C24.792 22.4306 23.351 21.8229 22.5524 21.3021C21.7538 20.7813 21.3545 20.0695 21.3545 19.1667C21.3545 18.2639 21.6757 17.5521 22.318 17.0313C22.9604 16.5104 23.8892 16.25 25.1045 16.25C26.2156 16.25 27.0837 16.5191 27.7087 17.0573C28.3337 17.5955 28.785 18.2639 29.0628 19.0625L32.3962 17.7083C32.0142 16.4931 31.3111 15.434 30.2868 14.5313C29.2625 13.6285 28.1253 13.125 26.8753 13.0208V10.4167H23.2295V13.0208C21.4934 13.4028 20.1392 14.1667 19.167 15.3125C18.1948 16.4583 17.7087 17.7431 17.7087 19.1667C17.7087 20.7986 18.1861 22.1181 19.141 23.125C20.0958 24.132 21.5975 25 23.6462 25.7292C25.8337 26.5278 27.3528 27.2396 28.2035 27.8646C29.0541 28.4896 29.4795 29.3056 29.4795 30.3125C29.4795 31.4583 29.0715 32.3004 28.2555 32.8385C27.4396 33.3767 26.4587 33.6458 25.3128 33.6458C24.167 33.6458 23.1514 33.2899 22.266 32.5781C21.3805 31.8663 20.7295 30.7986 20.3128 29.375L16.8753 30.7292C17.3614 32.3958 18.1166 33.7413 19.141 34.7656C20.1653 35.7899 21.4934 36.4931 23.1253 36.875V39.5833ZM25.0003 45.8333C22.1184 45.8333 19.41 45.2865 16.8753 44.1927C14.3406 43.099 12.1357 41.6146 10.2607 39.7396C8.38574 37.8646 6.90137 35.6597 5.80762 33.125C4.71387 30.5903 4.16699 27.882 4.16699 25C4.16699 22.1181 4.71387 19.4097 5.80762 16.875C6.90137 14.3403 8.38574 12.1354 10.2607 10.2604C12.1357 8.38542 14.3406 6.90105 16.8753 5.8073C19.41 4.71355 22.1184 4.16667 25.0003 4.16667C27.8823 4.16667 30.5906 4.71355 33.1253 5.8073C35.6601 6.90105 37.8649 8.38542 39.7399 10.2604C41.6149 12.1354 43.0993 14.3403 44.193 16.875C45.2868 19.4097 45.8337 22.1181 45.8337 25C45.8337 27.882 45.2868 30.5903 44.193 33.125C43.0993 35.6597 41.6149 37.8646 39.7399 39.7396C37.8649 41.6146 35.6601 43.099 33.1253 44.1927C30.5906 45.2865 27.8823 45.8333 25.0003 45.8333ZM25.0003 41.6667C29.6531 41.6667 33.5941 40.0521 36.8232 36.8229C40.0524 33.5938 41.667 29.6528 41.667 25C41.667 20.3472 40.0524 16.4063 36.8232 13.1771C33.5941 9.94792 29.6531 8.33334 25.0003 8.33334C20.3475 8.33334 16.4066 9.94792 13.1774 13.1771C9.94824 16.4063 8.33366 20.3472 8.33366 25C8.33366 29.6528 9.94824 33.5938 13.1774 36.8229C16.4066 40.0521 20.3475 41.6667 25.0003 41.6667Z" fill="black"/>
</g>
</svg>
