<svg width="50" height="50" viewBox="0 0 50 50" fill="none" xmlns="http://www.w3.org/2000/svg">
<mask id="mask0_1191_4659" style="mask-type:alpha" maskUnits="userSpaceOnUse" x="0" y="0" width="50" height="50">
<rect width="50" height="50" fill="#D9D9D9"/>
</mask>
<g mask="url(#mask0_1191_4659)">
<path d="M21.8737 31.2498H28.1237L26.9258 24.5311C27.6202 24.1839 28.1671 23.6804 28.5664 23.0207C28.9657 22.361 29.1654 21.6318 29.1654 20.8332C29.1654 19.6873 28.7574 18.7064 27.9414 17.8905C27.1254 17.0745 26.1445 16.6665 24.9987 16.6665C23.8529 16.6665 22.872 17.0745 22.056 17.8905C21.24 18.7064 20.832 19.6873 20.832 20.8332C20.832 21.6318 21.0317 22.361 21.431 23.0207C21.8303 23.6804 22.3772 24.1839 23.0716 24.5311L21.8737 31.2498ZM24.9987 45.8332C20.1723 44.6179 16.1879 41.8488 13.0456 37.5259C9.90321 33.203 8.33203 28.4026 8.33203 23.1248V10.4165L24.9987 4.1665L41.6654 10.4165V23.1248C41.6654 28.4026 40.0942 33.203 36.9518 37.5259C33.8095 41.8488 29.8251 44.6179 24.9987 45.8332ZM24.9987 41.4582C28.6098 40.3123 31.5959 38.0207 33.957 34.5832C36.3181 31.1457 37.4987 27.3262 37.4987 23.1248V13.2811L24.9987 8.59359L12.4987 13.2811V23.1248C12.4987 27.3262 13.6793 31.1457 16.0404 34.5832C18.4015 38.0207 21.3876 40.3123 24.9987 41.4582Z" fill="black"/>
</g>
</svg>
