<svg width="50" height="50" viewBox="0 0 50 50" fill="none" xmlns="http://www.w3.org/2000/svg">
<mask id="mask0_1191_4669" style="mask-type:alpha" maskUnits="userSpaceOnUse" x="0" y="0" width="50" height="50">
<rect width="50" height="50" fill="#D9D9D9"/>
</mask>
<g mask="url(#mask0_1191_4669)">
<path d="M22.9163 39.5833V10.4167H27.083V39.5833H22.9163ZM2.08301 33.3333V32.1354C2.08301 31.3021 2.3087 30.5382 2.76009 29.8437C3.21148 29.1493 3.83648 28.6285 4.63509 28.2812C5.53787 27.8993 6.46669 27.6042 7.42155 27.3958C8.37641 27.1875 9.37467 27.0833 10.4163 27.0833C11.458 27.0833 12.4563 27.1875 13.4111 27.3958C14.366 27.6042 15.2948 27.8993 16.1976 28.2812C16.9962 28.6285 17.6212 29.1493 18.0726 29.8437C18.524 30.5382 18.7497 31.3021 18.7497 32.1354V33.3333H2.08301ZM31.2497 33.3333V32.1354C31.2497 31.3021 31.4754 30.5382 31.9268 29.8437C32.3781 29.1493 33.0031 28.6285 33.8018 28.2812C34.7045 27.8993 35.6334 27.6042 36.5882 27.3958C37.5431 27.1875 38.5413 27.0833 39.583 27.0833C40.6247 27.0833 41.6229 27.1875 42.5778 27.3958C43.5327 27.6042 44.4615 27.8993 45.3643 28.2812C46.1629 28.6285 46.7879 29.1493 47.2393 29.8437C47.6906 30.5382 47.9163 31.3021 47.9163 32.1354V33.3333H31.2497ZM10.4163 25C9.27051 25 8.28961 24.592 7.47363 23.776C6.65766 22.9601 6.24967 21.9792 6.24967 20.8333C6.24967 19.6875 6.65766 18.7066 7.47363 17.8906C8.28961 17.0746 9.27051 16.6667 10.4163 16.6667C11.5622 16.6667 12.5431 17.0746 13.359 17.8906C14.175 18.7066 14.583 19.6875 14.583 20.8333C14.583 21.9792 14.175 22.9601 13.359 23.776C12.5431 24.592 11.5622 25 10.4163 25ZM39.583 25C38.4372 25 37.4563 24.592 36.6403 23.776C35.8243 22.9601 35.4163 21.9792 35.4163 20.8333C35.4163 19.6875 35.8243 18.7066 36.6403 17.8906C37.4563 17.0746 38.4372 16.6667 39.583 16.6667C40.7288 16.6667 41.7097 17.0746 42.5257 17.8906C43.3417 18.7066 43.7497 19.6875 43.7497 20.8333C43.7497 21.9792 43.3417 22.9601 42.5257 23.776C41.7097 24.592 40.7288 25 39.583 25Z" fill="black"/>
</g>
</svg>
