<svg width="121" height="120" viewBox="0 0 121 120" fill="none" xmlns="http://www.w3.org/2000/svg">
<path d="M115.784 83.9585C121.478 70.7986 122.205 55.9886 117.83 42.2562C113.483 28.6132 104.404 16.9163 92.2639 9.32137C90.6315 8.29936 88.9162 7.3365 87.1609 6.45538C86.7463 6.24903 86.3264 6.04149 85.9069 5.84584L85.3451 5.5839C84.9261 5.38851 84.4966 5.19997 84.0651 5.01177C82.2683 4.2365 80.4282 3.54146 78.5965 2.94816C64.9745 -1.46993 50.1784 -0.906919 36.9329 4.53333C23.6011 10.009 12.7231 20.0853 6.31195 32.8868C6.04911 33.3954 5.80195 33.9113 5.5607 34.4287C5.31894 34.9471 5.08285 35.4676 4.8706 35.975C-0.823651 49.1349 -1.55025 63.9449 2.82439 77.6778C7.1712 91.3209 16.2512 103.018 28.3906 110.612C30.023 111.634 31.7383 112.597 33.469 113.466C33.6504 113.56 33.8343 113.648 34.0174 113.737L34.2446 113.847C34.5041 113.975 34.7658 114.097 35.028 114.219C35.2897 114.341 35.5519 114.463 35.8131 114.578L36.0465 114.683C36.2327 114.767 36.4186 114.851 36.5883 114.921C38.3852 115.697 40.2247 116.391 42.0569 116.985C55.6789 121.403 70.4748 120.84 83.7203 115.4C97.0521 109.925 107.93 99.8477 114.341 87.0462C114.604 86.5374 114.851 86.0222 115.093 85.5043C115.336 84.9877 115.571 84.4665 115.784 83.9585ZM112.518 82.4903L92.0906 72.9649C102.498 49.7699 100.62 32.7504 97.1422 22.4865C96.1036 19.4247 94.8747 16.7794 93.6266 14.5367C114.759 29.9145 122.906 58.3963 112.518 82.4903ZM39.2342 112.168C38.8368 112.007 38.4378 111.856 38.0419 111.686L61.1364 62.1593L87.6834 74.5384C79.293 91.8386 67.7602 103.787 54.2425 109.118C47.9951 111.581 42.5959 112.129 39.2342 112.168ZM26.5874 96.222C21.9819 82.4407 23.7224 65.925 31.5819 48.3772L58.1289 60.7563L35.0342 110.283C34.6513 110.091 34.2779 109.881 33.8995 109.68C31.7667 107.08 28.7165 102.591 26.5874 96.222ZM81.4223 7.76727C81.8191 7.92822 82.2206 8.07953 82.6129 8.2488L59.518 57.7761L32.971 45.397C41.3614 28.0967 52.8941 16.1479 66.4118 10.817C72.6604 8.35344 78.0608 7.80512 81.4223 7.76727ZM62.5262 59.1788L85.6209 9.65209C86.0038 9.84436 86.3767 10.0541 86.7556 10.2549C88.8878 12.8545 91.938 17.3434 94.0674 23.7137C98.673 37.4949 96.9325 54.0106 89.073 71.5584L62.5259 59.1794L62.5262 59.1788ZM73.7248 5.25637C71.2045 5.74187 68.3882 6.50079 65.3751 7.67327C55.277 11.6066 41.0323 21.108 29.953 43.9897L9.52571 34.4643C21.291 11.0248 48.3536 -1.04907 73.7248 5.25637ZM8.13666 37.4445L28.5639 46.9699C18.1566 70.165 20.0347 87.1839 23.5129 97.4486C24.5515 100.51 25.7804 103.156 27.0285 105.398C5.89514 90.0203 -2.25116 61.5394 8.13666 37.4445ZM46.93 114.678C49.4503 114.192 52.2666 113.434 55.2791 112.261C65.3773 108.328 79.622 98.8261 90.7008 75.9441L111.128 85.4695C99.3636 108.91 72.301 120.984 46.93 114.678Z" fill="#CDD8FF"/>
</svg>
