<svg width="27" height="35" viewBox="0 0 27 35" fill="none" xmlns="http://www.w3.org/2000/svg">
<path d="M9.45833 19.5L10.9167 14.75L7.08333 11.6667H11.8333L13.3333 7L14.8333 11.6667H19.5833L15.7083 14.75L17.1667 19.5L13.3333 16.5417L9.45833 19.5ZM3.33333 35V22.125C2.27778 20.9583 1.45833 19.625 0.875 18.125C0.291667 16.625 0 15.0278 0 13.3333C0 9.61111 1.29167 6.45833 3.875 3.875C6.45833 1.29167 9.61111 0 13.3333 0C17.0556 0 20.2083 1.29167 22.7917 3.875C25.375 6.45833 26.6667 9.61111 26.6667 13.3333C26.6667 15.0278 26.375 16.625 25.7917 18.125C25.2083 19.625 24.3889 20.9583 23.3333 22.125V35L13.3333 31.6667L3.33333 35ZM13.3333 23.3333C16.1111 23.3333 18.4722 22.3611 20.4167 20.4167C22.3611 18.4722 23.3333 16.1111 23.3333 13.3333C23.3333 10.5556 22.3611 8.19444 20.4167 6.25C18.4722 4.30556 16.1111 3.33333 13.3333 3.33333C10.5556 3.33333 8.19444 4.30556 6.25 6.25C4.30556 8.19444 3.33333 10.5556 3.33333 13.3333C3.33333 16.1111 4.30556 18.4722 6.25 20.4167C8.19444 22.3611 10.5556 23.3333 13.3333 23.3333ZM6.66667 30.0417L13.3333 28.3333L20 30.0417V24.875C19.0278 25.4306 17.9792 25.8681 16.8542 26.1875C15.7292 26.5069 14.5556 26.6667 13.3333 26.6667C12.1111 26.6667 10.9375 26.5069 9.8125 26.1875C8.6875 25.8681 7.63889 25.4306 6.66667 24.875V30.0417Z" fill="#B8B8B8"/>
</svg>
