<svg width="34" height="34" viewBox="0 0 34 34" fill="none" xmlns="http://www.w3.org/2000/svg">
<path d="M13.3333 23.3333C16.1111 23.3333 18.4722 22.3611 20.4167 20.4167C22.3611 18.4722 23.3333 16.1111 23.3333 13.3333C23.3333 10.5556 22.3611 8.19444 20.4167 6.25C18.4722 4.30556 16.1111 3.33333 13.3333 3.33333C10.5556 3.33333 8.19444 4.30556 6.25 6.25C4.30556 8.19444 3.33333 10.5556 3.33333 13.3333C3.33333 16.1111 4.30556 18.4722 6.25 20.4167C8.19444 22.3611 10.5556 23.3333 13.3333 23.3333ZM11.6667 18.3333V6.66667H15V18.3333H11.6667ZM5.83333 18.3333V10H9.16667V18.3333H5.83333ZM17.5 18.3333V11.6667H20.8333V18.3333H17.5ZM31 33.3333L21.5417 23.875C20.4028 24.7639 19.1389 25.4514 17.75 25.9375C16.3611 26.4236 14.8889 26.6667 13.3333 26.6667C9.61111 26.6667 6.45833 25.375 3.875 22.7917C1.29167 20.2083 0 17.0556 0 13.3333C0 9.61111 1.29167 6.45833 3.875 3.875C6.45833 1.29167 9.61111 0 13.3333 0C17.0556 0 20.2083 1.29167 22.7917 3.875C25.375 6.45833 26.6667 9.61111 26.6667 13.3333C26.6667 14.8889 26.4236 16.3611 25.9375 17.75C25.4514 19.1389 24.7639 20.4028 23.875 21.5417L33.3333 31L31 33.3333Z" fill="#B8B8B8"/>
</svg>
