<svg width="37" height="27" viewBox="0 0 37 27" fill="none" xmlns="http://www.w3.org/2000/svg">
<path d="M11.6667 21.625V20.6667C11.6667 19.4444 12.2778 18.4653 13.5 17.7292C14.7222 16.9931 16.3333 16.625 18.3333 16.625C20.3333 16.625 21.9444 16.9931 23.1667 17.7292C24.3889 18.4653 25 19.4444 25 20.6667V21.625H11.6667ZM18.3333 14.9583C17.4167 14.9583 16.6319 14.6319 15.9792 13.9792C15.3264 13.3264 15 12.5417 15 11.625C15 10.7083 15.3264 9.92361 15.9792 9.27083C16.6319 8.61806 17.4167 8.29167 18.3333 8.29167C19.25 8.29167 20.0347 8.61806 20.6875 9.27083C21.3403 9.92361 21.6667 10.7083 21.6667 11.625C21.6667 12.5417 21.3403 13.3264 20.6875 13.9792C20.0347 14.6319 19.25 14.9583 18.3333 14.9583ZM3.33333 8.625V21.375C3.72222 21.7361 4.19444 22.0486 4.75 22.3125C5.30556 22.5764 5.94444 22.7778 6.66667 22.9167V9.70833C6.05555 9.56944 5.46528 9.40972 4.89583 9.22917C4.32639 9.04861 3.80556 8.84722 3.33333 8.625ZM33.3333 8.58333C32.8611 8.80556 32.3472 9.00694 31.7917 9.1875C31.2361 9.36806 30.6389 9.52778 30 9.66667V22.9167C30.7222 22.7778 31.3611 22.5764 31.9167 22.3125C32.4722 22.0486 32.9444 21.7361 33.3333 21.375V8.58333ZM10 26.875C6.80555 26.4861 4.34028 25.8333 2.60417 24.9167C0.868055 24 0 22.9028 0 21.625V4.95833C0 3.375 1.57639 2.15278 4.72917 1.29167C7.88194 0.430556 12.4167 0 18.3333 0C24.25 0 28.7847 0.430556 31.9375 1.29167C35.0903 2.15278 36.6667 3.375 36.6667 4.95833V21.625C36.6667 22.9028 35.7986 24 34.0625 24.9167C32.3264 25.8333 29.8611 26.4861 26.6667 26.875V6.875C28.0833 6.65278 29.3403 6.38194 30.4375 6.0625C31.5347 5.74306 32.3194 5.43056 32.7917 5.125C31.5972 4.65278 29.5556 4.22917 26.6667 3.85417C23.7778 3.47917 21 3.29167 18.3333 3.29167C15.6667 3.29167 12.8889 3.47917 10 3.85417C7.11111 4.22917 5.06944 4.65278 3.875 5.125C4.34722 5.45833 5.13194 5.77778 6.22917 6.08333C7.32639 6.38889 8.58333 6.65278 10 6.875V26.875Z" fill="#B8B8B8"/>
</svg>
