<svg width="471" height="75" viewBox="0 0 471 75" fill="none" xmlns="http://www.w3.org/2000/svg">
  <defs>
    <!-- Gradient -->
    <linearGradient id="paint0_linear_13_1372" x1="-209.224" y1="48.2861" x2="468.914" y2="17.3068" gradientUnits="userSpaceOnUse">
      <stop stop-color="#8F8C8C" stop-opacity="0"></stop>
      <stop offset="1" stop-color="#8F8C8C"></stop>
    </linearGradient>

    <!-- Mask with pause at the end -->
    <mask id="revealMaskReverse">
      <rect x="471" y="0" width="0" height="75" fill="white">
        <animate attributeName="x" values="471;0;0" keyTimes="0;0.8;1" dur="2.5s" repeatCount="indefinite"></animate>
        <animate attributeName="width" values="0;471;471" keyTimes="0;0.8;1" dur="2.5s" repeatCount="indefinite"></animate>
      </rect>
    </mask>
  </defs>

  <!-- Path -->
  <path mask="url(#revealMaskReverse)" fill="url(#paint0_linear_13_1372)" d="M0.292893 67.7071C-0.0976311 67.3166 -0.0976311 66.6834 0.292893 66.2929L6.65685 59.9289C7.04738 59.5384 7.68054 59.5384 8.07107 59.9289C8.46159 60.3195 8.46159 60.9526 8.07107 61.3431L2.41421 67L8.07107 72.6569C8.46159 73.0474 8.46159 73.6805 8.07107 74.0711C7.68054 74.4616 7.04738 74.4616 6.65685 74.0711L0.292893 67.7071ZM1 67V66H6.10227V67V68H1V67ZM16.3068 67V66H26.5114V67V68H16.3068V67ZM36.7159 67V66H46.9205V67V68H36.7159V67ZM57.125 67V66H67.3295V67V68H57.125V67ZM77.5341 67V66H87.7386V67V68H77.5341V67ZM97.9432 67V66H108.148V67V68H97.9432V67ZM118.352 67V66H128.557V67V68H118.352V67ZM138.761 67V66H148.966V67V68H138.761V67ZM159.17 67V66H169.375V67V68H159.17V67ZM179.58 67V66H189.784V67V68H179.58V67ZM199.989 67V66H210.193V67V68H199.989V67ZM220.398 67V66H230.602V67V68H220.398V67ZM240.807 67V66H251.011V67V68H240.807V67ZM261.216 67V66H271.42V67V68H261.216V67ZM281.625 67V66H291.83V67V68H281.625V67ZM302.034 67V66H312.239V67V68H302.034V67ZM322.443 67V66H332.648V67V68H322.443V67ZM342.852 67V66H353.057V67V68H342.852V67ZM363.261 67V66H373.466V67V68H363.261V67ZM383.671 67V66H393.875V67V68H383.671V67ZM404.08 67V66H414.284V67V68H404.08V67ZM424.489 67V66H434.693V67V68H424.489V67ZM444.898 67V66H450V67V68H444.898V67ZM450 67V66C451.27 66 452.51 65.8755 453.709 65.6383L453.903 66.6193L454.097 67.6003C452.771 67.8626 451.401 68 450 68V67ZM461.112 63.6313L460.556 62.8003C462.628 61.4129 464.413 59.6284 465.8 57.556L466.631 58.1123L467.462 58.6686C465.929 60.9583 463.958 62.9294 461.669 64.4623L461.112 63.6313ZM469.619 50.9032L468.638 50.7092C468.875 49.5103 469 48.2702 469 47H470H471C471 48.4012 470.863 49.7713 470.6 51.0973L469.619 50.9032ZM470 47H469V41.125H470H471V47H470ZM470 29.375H469V17.625H470H471V29.375H470ZM470 5.875H469V0H470H471V5.875H470Z"></path>
</svg>
