<svg width="471" height="75" viewBox="0 0 471 75" fill="none" xmlns="http://www.w3.org/2000/svg">

  <defs>
    <!-- Original gradient -->
    <linearGradient id="paint0_linear_13_1369" x1="680.224" y1="48.2861" x2="2.08616" y2="17.3068" gradientUnits="userSpaceOnUse">
      <stop stop-color="#8F8C8C" stop-opacity="0"></stop>
      <stop offset="1" stop-color="#8F8C8C"></stop>
    </linearGradient>

    <!-- Continuous reveal mask with pause at the arrow -->
    <mask id="continuousRevealMask">
      <rect x="0" y="0" width="0" height="75" fill="white">
        <animate attributeName="width" values="0;471;471" keyTimes="0;0.8;1" dur="2.5s" repeatCount="indefinite"></animate>
      </rect>
    </mask>
  </defs>

  <!-- FULL ORIGINAL PATH -->
  <path mask="url(#continuousRevealMask)" fill="url(#paint0_linear_13_1369)" d="M470.707 67.7071C471.098 67.3166 471.098 66.6834 470.707 66.2929L464.343 59.9289C463.953 59.5384 463.319 59.5384 462.929 59.9289C462.538 60.3195 462.538 60.9526 462.929 61.3431L468.586 67L462.929 72.6569C462.538 73.0474 462.538 73.6805 462.929 74.0711C463.319 74.4616 463.953 74.4616 464.343 74.0711L470.707 67.7071ZM470 67V66H464.898V67V68H470V67ZM454.693 67V66H444.489V67V68H454.693V67ZM434.284 67V66H424.08V67V68H434.284V67ZM413.875 67V66H403.67V67V68H413.875V67ZM393.466 67V66H383.261V67V68H393.466V67ZM373.057 67V66H362.852V67V68H373.057V67ZM352.648 67V66H342.443V67V68H352.648V67ZM332.239 67V66H322.034V67V68H332.239V67ZM311.83 67V66H301.625V67V68H311.83V67ZM291.42 67V66H281.216V67V68H291.42V67ZM271.011 67V66H260.807V67V68H271.011V67ZM250.602 67V66H240.398V67V68H250.602V67ZM230.193 67V66H219.989V67V68H230.193V67ZM209.784 67V66H199.58V67V68H209.784V67ZM189.375 67V66H179.17V67V68H189.375V67ZM168.966 67V66H158.761V67V68H168.966V67ZM148.557 67V66H138.352V67V68H148.557V67ZM128.148 67V66H117.943V67V68H128.148V67ZM107.739 67V66H97.534V67V68H107.739V67ZM87.3294 67V66H77.1248V67V68H87.3294V67ZM66.9203 67V66H56.7157V67V68H66.9203V67ZM46.5112 67V66H36.3066V67V68H46.5112V67ZM26.1021 67V66H21V67V68H26.1021V67ZM21 67V66C19.7298 66 18.4897 65.8755 17.2908 65.6383L17.0968 66.6193L16.9027 67.6003C18.2287 67.8626 19.5988 68 21 68V67ZM9.8877 63.6313L10.444 62.8003C8.37158 61.4129 6.5871 59.6284 5.19965 57.556L4.36868 58.1123L3.53772 58.6686C5.07059 60.9583 7.04172 62.9294 9.33136 64.4623L9.8877 63.6313ZM1.38068 50.9032L2.36166 50.7092C2.12451 49.5103 2 48.2702 2 47H1H0C0 48.4012 0.13736 49.7713 0.399689 51.0973L1.38068 50.9032ZM1 47H2V41.125H1H0V47H1ZM1 29.375H2V17.625H1H0V29.375H1ZM1 5.875H2V0H1H0V5.875H1Z"></path>
</svg>
