<svg width="24" height="24" viewBox="0 0 24 24" fill="none" xmlns="http://www.w3.org/2000/svg">
<g clip-path="url(#clip0_892_1082)">
<path d="M7.33132 0.800781C3.72958 0.800781 0.799805 3.73327 0.799805 7.33594V16.6693C0.799805 20.271 3.73229 23.2008 7.33496 23.2008H16.6683C20.27 23.2008 23.1998 20.2683 23.1998 16.6656V7.33229C23.1998 3.73056 20.2673 0.800781 16.6646 0.800781H7.33132ZM18.5331 4.53411C19.0483 4.53411 19.4665 4.95225 19.4665 5.46745C19.4665 5.98265 19.0483 6.40078 18.5331 6.40078C18.0179 6.40078 17.5998 5.98265 17.5998 5.46745C17.5998 4.95225 18.0179 4.53411 18.5331 4.53411ZM11.9998 6.40078C15.0882 6.40078 17.5998 8.91238 17.5998 12.0008C17.5998 15.0892 15.0882 17.6008 11.9998 17.6008C8.91141 17.6008 6.39981 15.0892 6.39981 12.0008C6.39981 8.91238 8.91141 6.40078 11.9998 6.40078ZM11.9998 8.26745C11.0097 8.26745 10.0601 8.66078 9.35994 9.36092C8.6598 10.0611 8.26647 11.0106 8.26647 12.0008C8.26647 12.9909 8.6598 13.9405 9.35994 14.6406C10.0601 15.3408 11.0097 15.7341 11.9998 15.7341C12.9899 15.7341 13.9395 15.3408 14.6397 14.6406C15.3398 13.9405 15.7331 12.9909 15.7331 12.0008C15.7331 11.0106 15.3398 10.0611 14.6397 9.36092C13.9395 8.66078 12.9899 8.26745 11.9998 8.26745Z" fill="black"/>
</g>
<defs>
<clipPath id="clip0_892_1082">
<rect width="24" height="24" fill="white"/>
</clipPath>
</defs>
</svg>
