<svg width="24" height="34" viewBox="0 0 24 34" fill="none" xmlns="http://www.w3.org/2000/svg">
<path d="M11.6667 33.3333C8.72222 33.3333 6.31944 32.8681 4.45833 31.9375C2.59722 31.0069 1.66667 29.8056 1.66667 28.3333C1.66667 27.6667 1.86806 27.0486 2.27083 26.4792C2.67361 25.9097 3.23611 25.4167 3.95833 25L6.58333 27.4583C6.33333 27.5694 6.0625 27.6944 5.77083 27.8333C5.47917 27.9722 5.25 28.1389 5.08333 28.3333C5.44444 28.7778 6.27778 29.1667 7.58333 29.5C8.88889 29.8333 10.25 30 11.6667 30C13.0833 30 14.4514 29.8333 15.7708 29.5C17.0903 29.1667 17.9306 28.7778 18.2917 28.3333C18.0972 28.1111 17.8472 27.9306 17.5417 27.7917C17.2361 27.6528 16.9444 27.5278 16.6667 27.4167L19.25 24.9167C20.0278 25.3611 20.625 25.8681 21.0417 26.4375C21.4583 27.0069 21.6667 27.6389 21.6667 28.3333C21.6667 29.8056 20.7361 31.0069 18.875 31.9375C17.0139 32.8681 14.6111 33.3333 11.6667 33.3333ZM11.7083 24.1667C14.4583 22.1389 16.5278 20.1042 17.9167 18.0625C19.3056 16.0208 20 13.9722 20 11.9167C20 9.08333 19.0972 6.94444 17.2917 5.5C15.4861 4.05556 13.6111 3.33333 11.6667 3.33333C9.72222 3.33333 7.84722 4.05556 6.04167 5.5C4.23611 6.94444 3.33333 9.08333 3.33333 11.9167C3.33333 13.7778 4.01389 15.7153 5.375 17.7292C6.73611 19.7431 8.84722 21.8889 11.7083 24.1667ZM11.6667 28.3333C7.75 25.4444 4.82639 22.6389 2.89583 19.9167C0.965278 17.1944 0 14.5278 0 11.9167C0 9.94444 0.354167 8.21528 1.0625 6.72917C1.77083 5.24306 2.68056 4 3.79167 3C4.90278 2 6.15278 1.25 7.54167 0.75C8.93056 0.25 10.3056 0 11.6667 0C13.0278 0 14.4028 0.25 15.7917 0.75C17.1806 1.25 18.4306 2 19.5417 3C20.6528 4 21.5625 5.24306 22.2708 6.72917C22.9792 8.21528 23.3333 9.94444 23.3333 11.9167C23.3333 14.5278 22.3681 17.1944 20.4375 19.9167C18.5069 22.6389 15.5833 25.4444 11.6667 28.3333ZM11.6667 15C12.5833 15 13.3681 14.6736 14.0208 14.0208C14.6736 13.3681 15 12.5833 15 11.6667C15 10.75 14.6736 9.96528 14.0208 9.3125C13.3681 8.65972 12.5833 8.33333 11.6667 8.33333C10.75 8.33333 9.96528 8.65972 9.3125 9.3125C8.65972 9.96528 8.33333 10.75 8.33333 11.6667C8.33333 12.5833 8.65972 13.3681 9.3125 14.0208C9.96528 14.6736 10.75 15 11.6667 15Z" fill="black"/>
<path d="M11.6667 33.3333C8.72222 33.3333 6.31944 32.8681 4.45833 31.9375C2.59722 31.0069 1.66667 29.8056 1.66667 28.3333C1.66667 27.6667 1.86806 27.0486 2.27083 26.4792C2.67361 25.9097 3.23611 25.4167 3.95833 25L6.58333 27.4583C6.33333 27.5694 6.0625 27.6944 5.77083 27.8333C5.47917 27.9722 5.25 28.1389 5.08333 28.3333C5.44444 28.7778 6.27778 29.1667 7.58333 29.5C8.88889 29.8333 10.25 30 11.6667 30C13.0833 30 14.4514 29.8333 15.7708 29.5C17.0903 29.1667 17.9306 28.7778 18.2917 28.3333C18.0972 28.1111 17.8472 27.9306 17.5417 27.7917C17.2361 27.6528 16.9444 27.5278 16.6667 27.4167L19.25 24.9167C20.0278 25.3611 20.625 25.8681 21.0417 26.4375C21.4583 27.0069 21.6667 27.6389 21.6667 28.3333C21.6667 29.8056 20.7361 31.0069 18.875 31.9375C17.0139 32.8681 14.6111 33.3333 11.6667 33.3333ZM11.7083 24.1667C14.4583 22.1389 16.5278 20.1042 17.9167 18.0625C19.3056 16.0208 20 13.9722 20 11.9167C20 9.08333 19.0972 6.94444 17.2917 5.5C15.4861 4.05556 13.6111 3.33333 11.6667 3.33333C9.72222 3.33333 7.84722 4.05556 6.04167 5.5C4.23611 6.94444 3.33333 9.08333 3.33333 11.9167C3.33333 13.7778 4.01389 15.7153 5.375 17.7292C6.73611 19.7431 8.84722 21.8889 11.7083 24.1667ZM11.6667 28.3333C7.75 25.4444 4.82639 22.6389 2.89583 19.9167C0.965278 17.1944 0 14.5278 0 11.9167C0 9.94444 0.354167 8.21528 1.0625 6.72917C1.77083 5.24306 2.68056 4 3.79167 3C4.90278 2 6.15278 1.25 7.54167 0.75C8.93056 0.25 10.3056 0 11.6667 0C13.0278 0 14.4028 0.25 15.7917 0.75C17.1806 1.25 18.4306 2 19.5417 3C20.6528 4 21.5625 5.24306 22.2708 6.72917C22.9792 8.21528 23.3333 9.94444 23.3333 11.9167C23.3333 14.5278 22.3681 17.1944 20.4375 19.9167C18.5069 22.6389 15.5833 25.4444 11.6667 28.3333ZM11.6667 15C12.5833 15 13.3681 14.6736 14.0208 14.0208C14.6736 13.3681 15 12.5833 15 11.6667C15 10.75 14.6736 9.96528 14.0208 9.3125C13.3681 8.65972 12.5833 8.33333 11.6667 8.33333C10.75 8.33333 9.96528 8.65972 9.3125 9.3125C8.65972 9.96528 8.33333 10.75 8.33333 11.6667C8.33333 12.5833 8.65972 13.3681 9.3125 14.0208C9.96528 14.6736 10.75 15 11.6667 15Z" fill="black" fill-opacity="0.2"/>
<path d="M11.6667 33.3333C8.72222 33.3333 6.31944 32.8681 4.45833 31.9375C2.59722 31.0069 1.66667 29.8056 1.66667 28.3333C1.66667 27.6667 1.86806 27.0486 2.27083 26.4792C2.67361 25.9097 3.23611 25.4167 3.95833 25L6.58333 27.4583C6.33333 27.5694 6.0625 27.6944 5.77083 27.8333C5.47917 27.9722 5.25 28.1389 5.08333 28.3333C5.44444 28.7778 6.27778 29.1667 7.58333 29.5C8.88889 29.8333 10.25 30 11.6667 30C13.0833 30 14.4514 29.8333 15.7708 29.5C17.0903 29.1667 17.9306 28.7778 18.2917 28.3333C18.0972 28.1111 17.8472 27.9306 17.5417 27.7917C17.2361 27.6528 16.9444 27.5278 16.6667 27.4167L19.25 24.9167C20.0278 25.3611 20.625 25.8681 21.0417 26.4375C21.4583 27.0069 21.6667 27.6389 21.6667 28.3333C21.6667 29.8056 20.7361 31.0069 18.875 31.9375C17.0139 32.8681 14.6111 33.3333 11.6667 33.3333ZM11.7083 24.1667C14.4583 22.1389 16.5278 20.1042 17.9167 18.0625C19.3056 16.0208 20 13.9722 20 11.9167C20 9.08333 19.0972 6.94444 17.2917 5.5C15.4861 4.05556 13.6111 3.33333 11.6667 3.33333C9.72222 3.33333 7.84722 4.05556 6.04167 5.5C4.23611 6.94444 3.33333 9.08333 3.33333 11.9167C3.33333 13.7778 4.01389 15.7153 5.375 17.7292C6.73611 19.7431 8.84722 21.8889 11.7083 24.1667ZM11.6667 28.3333C7.75 25.4444 4.82639 22.6389 2.89583 19.9167C0.965278 17.1944 0 14.5278 0 11.9167C0 9.94444 0.354167 8.21528 1.0625 6.72917C1.77083 5.24306 2.68056 4 3.79167 3C4.90278 2 6.15278 1.25 7.54167 0.75C8.93056 0.25 10.3056 0 11.6667 0C13.0278 0 14.4028 0.25 15.7917 0.75C17.1806 1.25 18.4306 2 19.5417 3C20.6528 4 21.5625 5.24306 22.2708 6.72917C22.9792 8.21528 23.3333 9.94444 23.3333 11.9167C23.3333 14.5278 22.3681 17.1944 20.4375 19.9167C18.5069 22.6389 15.5833 25.4444 11.6667 28.3333ZM11.6667 15C12.5833 15 13.3681 14.6736 14.0208 14.0208C14.6736 13.3681 15 12.5833 15 11.6667C15 10.75 14.6736 9.96528 14.0208 9.3125C13.3681 8.65972 12.5833 8.33333 11.6667 8.33333C10.75 8.33333 9.96528 8.65972 9.3125 9.3125C8.65972 9.96528 8.33333 10.75 8.33333 11.6667C8.33333 12.5833 8.65972 13.3681 9.3125 14.0208C9.96528 14.6736 10.75 15 11.6667 15Z" fill="black" fill-opacity="0.2"/>
<path d="M11.6667 33.3333C8.72222 33.3333 6.31944 32.8681 4.45833 31.9375C2.59722 31.0069 1.66667 29.8056 1.66667 28.3333C1.66667 27.6667 1.86806 27.0486 2.27083 26.4792C2.67361 25.9097 3.23611 25.4167 3.95833 25L6.58333 27.4583C6.33333 27.5694 6.0625 27.6944 5.77083 27.8333C5.47917 27.9722 5.25 28.1389 5.08333 28.3333C5.44444 28.7778 6.27778 29.1667 7.58333 29.5C8.88889 29.8333 10.25 30 11.6667 30C13.0833 30 14.4514 29.8333 15.7708 29.5C17.0903 29.1667 17.9306 28.7778 18.2917 28.3333C18.0972 28.1111 17.8472 27.9306 17.5417 27.7917C17.2361 27.6528 16.9444 27.5278 16.6667 27.4167L19.25 24.9167C20.0278 25.3611 20.625 25.8681 21.0417 26.4375C21.4583 27.0069 21.6667 27.6389 21.6667 28.3333C21.6667 29.8056 20.7361 31.0069 18.875 31.9375C17.0139 32.8681 14.6111 33.3333 11.6667 33.3333ZM11.7083 24.1667C14.4583 22.1389 16.5278 20.1042 17.9167 18.0625C19.3056 16.0208 20 13.9722 20 11.9167C20 9.08333 19.0972 6.94444 17.2917 5.5C15.4861 4.05556 13.6111 3.33333 11.6667 3.33333C9.72222 3.33333 7.84722 4.05556 6.04167 5.5C4.23611 6.94444 3.33333 9.08333 3.33333 11.9167C3.33333 13.7778 4.01389 15.7153 5.375 17.7292C6.73611 19.7431 8.84722 21.8889 11.7083 24.1667ZM11.6667 28.3333C7.75 25.4444 4.82639 22.6389 2.89583 19.9167C0.965278 17.1944 0 14.5278 0 11.9167C0 9.94444 0.354167 8.21528 1.0625 6.72917C1.77083 5.24306 2.68056 4 3.79167 3C4.90278 2 6.15278 1.25 7.54167 0.75C8.93056 0.25 10.3056 0 11.6667 0C13.0278 0 14.4028 0.25 15.7917 0.75C17.1806 1.25 18.4306 2 19.5417 3C20.6528 4 21.5625 5.24306 22.2708 6.72917C22.9792 8.21528 23.3333 9.94444 23.3333 11.9167C23.3333 14.5278 22.3681 17.1944 20.4375 19.9167C18.5069 22.6389 15.5833 25.4444 11.6667 28.3333ZM11.6667 15C12.5833 15 13.3681 14.6736 14.0208 14.0208C14.6736 13.3681 15 12.5833 15 11.6667C15 10.75 14.6736 9.96528 14.0208 9.3125C13.3681 8.65972 12.5833 8.33333 11.6667 8.33333C10.75 8.33333 9.96528 8.65972 9.3125 9.3125C8.65972 9.96528 8.33333 10.75 8.33333 11.6667C8.33333 12.5833 8.65972 13.3681 9.3125 14.0208C9.96528 14.6736 10.75 15 11.6667 15Z" fill="black" fill-opacity="0.2"/>
</svg>
