<svg width="34" height="27" viewBox="0 0 34 27" fill="none" xmlns="http://www.w3.org/2000/svg">
<path d="M3.33333 26.6667C2.41667 26.6667 1.63194 26.3403 0.979167 25.6875C0.326389 25.0347 0 24.25 0 23.3333V3.33333C0 2.41667 0.326389 1.63194 0.979167 0.979167C1.63194 0.326389 2.41667 0 3.33333 0H30C30.9167 0 31.7014 0.326389 32.3542 0.979167C33.0069 1.63194 33.3333 2.41667 33.3333 3.33333V23.3333C33.3333 24.25 33.0069 25.0347 32.3542 25.6875C31.7014 26.3403 30.9167 26.6667 30 26.6667H3.33333ZM16.6667 15L3.33333 6.66667V23.3333H30V6.66667L16.6667 15ZM16.6667 11.6667L30 3.33333H3.33333L16.6667 11.6667ZM3.33333 6.66667V3.33333V23.3333V6.66667Z" fill="#1C1B1F"/>
</svg>
