<svg width="114" height="199" viewBox="0 0 114 199" fill="none" xmlns="http://www.w3.org/2000/svg">
<path d="M79.7202 17.4818L158.893 108.219C162.938 112.854 163.122 120.559 159.303 125.426L112.531 185.043C108.712 189.911 102.356 190.075 98.3302 185.462L19.1573 94.7254C15.1123 90.0896 14.9486 82.4078 18.7489 77.5637L65.5205 17.9466C69.3394 13.0789 75.7145 12.891 79.7595 17.5268L79.7202 17.4818Z" stroke="white" stroke-width="2.21028" stroke-miterlimit="10"/>
<path d="M155.451 116.219L73.2829 22.0494L22.6052 86.6451L104.773 180.814L155.451 116.219Z" stroke="white" stroke-width="2.21028" stroke-miterlimit="10"/>
<path d="M9.44897 70.1544L4.68104 76.2308C2.11227 79.5045 2.23596 84.7005 4.95688 87.8182L104.73 202.144C107.451 205.262 111.752 205.136 114.32 201.862L119.088 195.785L9.42938 70.132L9.44897 70.1544Z" stroke="white" stroke-width="2.21028" stroke-miterlimit="10"/>
<path d="M79.3092 150.152L49.3034 115.768L44.5882 121.777L74.594 156.161L79.3092 150.152Z" stroke="white" stroke-width="2.21028" stroke-miterlimit="10"/>
</svg>
